<svg xmlns="http://www.w3.org/2000/svg" xmlns:xlink="http://www.w3.org/1999/xlink" width="100.294" height="28.699" viewBox="0 0 100.294 28.699">
  <defs>
    <clipPath id="clip-path">
      <rect id="Rectangle_55" data-name="Rectangle 55" width="100.294" height="28.699" transform="translate(0 0)" fill="none"/>
    </clipPath>
  </defs>
  <g id="Group_56" data-name="Group 56" transform="translate(0 0)">
    <g id="Group_55" data-name="Group 55" clip-path="url(#clip-path)">
      <path id="Path_183" data-name="Path 183" d="M8.554,28.7c-.516-2.846.712-4.907.8-7.375C6.263,23.957,3.927,27.174,0,28.336c2.82-2.159,3.674-5.452,5.166-8.347,1.45-2.811,3.32-5.009,6.833-4.9a1.732,1.732,0,0,0,1.425-.841c1.84-2.137,4.007-2.86,6.635-1.473C21.345,8.652,23.213,5.011,26.482,2.2,30.377-1.14,34.829-.655,37.9,3.495c1.857,2.51,2.722,5.5,3.966,8.3.377.849.585,1.54,1.886,1.187,1.4-.378,2.526.6,3.527,1.5a28.42,28.42,0,0,1,6.2,8.667,2.011,2.011,0,0,1-.583,2.842c-1.169.841-1.585-.339-2.168-.935-1.2-1.231-2.37-2.5-3.544-3.746a5.028,5.028,0,0,0-.381.351c-.715.94.11,3.021-1.544,3.015-1.736-.007-1.644-2.023-2.125-3.266a16.681,16.681,0,0,0-2.176-4.456c-.31-.4-.64-.835-1.2-.734-.646.116-.56.726-.629,1.2-.6,4.046-.6,4.046-3.933,1.5-1.861-1.42-2.856-1.241-3.945.818a13.348,13.348,0,0,0-.836,2.336c-.263.857-.31,2.037-1.576,1.809-1.286-.232-.858-1.438-.843-2.275.046-2.576.211-5.15.249-7.726a15.62,15.62,0,0,0-.313-2.964c-.129-.72-.284-1.625-1.047-1.852-.982-.293-1.477.655-1.914,1.3a35.495,35.495,0,0,0-4.6,11.236c-.317,1.2-.625,2.412-.934,3.619-.186.727-.615,1.224-1.4,1.136-.759-.086-.713-.766-.822-1.338a26.475,26.475,0,0,0-.815-3.639c-.653-1.9-1.655-2.112-3.089-.687a14.206,14.206,0,0,0-2.942,4.875A7.229,7.229,0,0,1,8.554,28.7" fill="#dd3f22"/>
      <path id="Path_184" data-name="Path 184" d="M77.631,13.79C86.4,8.382,90.36,9.62,94.736,19a21.827,21.827,0,0,0,4.6,7.045c.455.426,1.323.9.8,1.588a1.549,1.549,0,0,1-2.253-.008c-2.653-2.124-5.54-3.981-7.738-6.635-.371-.448-.724-.914-1.133-1.325-1.709-1.718-2.747-1.648-4.146.4a27.981,27.981,0,0,0-1.633,3.079c-1.183,2.313-2.275,2.525-3.805.416-2.433-3.354-5.2-6.484-7.039-10.26-.432-.887-.743-2.352-2.049-2.167-1.127.159-1.5,1.471-1.872,2.465-.607,1.633-1.086,3.313-1.613,4.975-.563,1.777-1.393,1.888-2.574.474-1.6-1.911-2.812-1.9-4.346.012a16.978,16.978,0,0,0-.918,1.481c-.323.5-.7,1.005-1.391.8-.8-.242-.9-.935-.777-1.621a26.2,26.2,0,0,1,.688-2.9,7.472,7.472,0,0,0,.218-3.2,2.346,2.346,0,0,0-1.608-2.043c-.944-.3-1.537.392-2.1,1.024a3.563,3.563,0,0,1-.489.563c-.871.628-.711,2.907-2.162,2.133-1.342-.716-.2-2.413.148-3.572C52.735,7.738,55,5.788,58.035,5.873c2.931.082,3.509-.22,5.48-2.514a7.494,7.494,0,0,1,4.989-3,4.664,4.664,0,0,1,4.678,2.163c2.354,3.4,3.171,7.411,4.449,11.268" fill="#dd3f22"/>
    </g>
  </g>
</svg>
