<svg id="Group_42" data-name="Group 42" xmlns="http://www.w3.org/2000/svg" xmlns:xlink="http://www.w3.org/1999/xlink" width="32.279" height="31.768" viewBox="0 0 32.279 31.768">
  <defs>
    <clipPath id="clip-path">
      <rect id="Rectangle_50" data-name="Rectangle 50" width="32.279" height="31.768" fill="#df3311"/>
    </clipPath>
  </defs>
  <g id="Group_41" data-name="Group 41" transform="translate(0 0)" clip-path="url(#clip-path)">
    <path id="Path_127" data-name="Path 127" d="M32.279,2.628a4.29,4.29,0,0,1-1.486,2.393c-3.382,3.45-6.722,6.943-10.158,10.34-1.018,1.006-1.023,1.614.026,2.6A85.472,85.472,0,0,1,28.6,26.53c1.136,1.407,1.941,2.779.367,4.274-1.6,1.519-2.842.219-4.06-.749a86.757,86.757,0,0,1-8.623-7.877c-.939-.98-1.478-.919-2.393.023C11.176,25,8.347,27.68,5.587,30.429c-1.311,1.306-2.7,1.977-4.268.5-1.67-1.568-.735-2.924.5-4.194C4.534,23.946,7.2,21.1,10,18.4c1.067-1.03,1.163-1.6.069-2.706-3.116-3.157-6.43-6.143-9.044-9.766A3.946,3.946,0,0,1,0,3.863a2.33,2.33,0,0,1,1.1-2.183c.953-.61,1.786-.168,2.577.405a70.462,70.462,0,0,1,10.243,9.209c1.264,1.362,2.033,1.29,3.294,0C20.656,7.788,24.229,4.417,27.753,1c.83-.805,1.751-1.358,2.93-.716a2.918,2.918,0,0,1,1.6,2.347" transform="translate(0 0)" fill="#df3311"/>
  </g>
</svg>
