<svg xmlns="http://www.w3.org/2000/svg" xmlns:xlink="http://www.w3.org/1999/xlink" width="22.964" height="32.919" viewBox="0 0 22.964 32.919">
  <defs>
    <clipPath id="clip-path">
      <rect id="Rectangle_51" data-name="Rectangle 51" width="22.964" height="32.919" fill="#221333"/>
    </clipPath>
  </defs>
  <g id="Group_44" data-name="Group 44" transform="translate(0 0)">
    <g id="Group_43" data-name="Group 43" transform="translate(0 0)" clip-path="url(#clip-path)">
      <path id="Path_128" data-name="Path 128" d="M0,32.919a8.774,8.774,0,0,1,.57-2.687,26.371,26.371,0,0,0,2.687-3.42,7.758,7.758,0,0,0,0-6.107c-1.14-2.361.244-3.12.244-3.12S5.782,20.3,5.863,22.5a12.721,12.721,0,0,0-.9-5.782c-1.221-2.769,2.2-6.271,2.2-6.271S7.736,15,8.794,15.9c0,0-1.058-5.782,0-7.492s2.525-3.99,3.339-4.316c0,0,.815,5.212,1.71,6.434,0,0-.081-5.13.977-6.922A7.689,7.689,0,0,1,22.231.02s-.815,4.154-.489,6.107a5.547,5.547,0,0,1-3.827,6.352,6.542,6.542,0,0,0,5.048-.732S21.753,18.53,12.3,18.587c0,0,1.384.9,6.025.327,0,0-.632,4.839-8.958,4.234,0,0-3.037.815-1.03.815s4.125.733,5.184.407c0,0-1.017,1.964-6.271,2.036a10.691,10.691,0,0,0-1.955,1.548C4.865,28.469,0,32.919,0,32.919" transform="translate(0 0)" fill="#221333"/>
    </g>
  </g>
</svg>
