<svg xmlns="http://www.w3.org/2000/svg" xmlns:xlink="http://www.w3.org/1999/xlink" width="1920" height="473" viewBox="0 0 1920 473">
  <defs>
    <clipPath id="clip-path">
      <rect id="Rectangle_15" data-name="Rectangle 15" width="106.519" height="106.547" fill="none"/>
    </clipPath>
    <clipPath id="clip-path-2">
      <rect id="Rectangle_14" data-name="Rectangle 14" width="106.521" height="106.547" fill="none"/>
    </clipPath>
    <clipPath id="clip-path-3">
      <rect id="Rectangle_12" data-name="Rectangle 12" width="56.453" height="56.465" fill="none"/>
    </clipPath>
    <clipPath id="clip-path-4">
      <rect id="Rectangle_13" data-name="Rectangle 13" width="99.373" height="98.988" fill="none"/>
    </clipPath>
  </defs>
  <g id="Group_30" data-name="Group 30" transform="translate(0 -2958)">
    <rect id="Rectangle_30" data-name="Rectangle 30" width="1920" height="473" transform="translate(0 2958)" fill="#221333"/>
    <g id="Group_29" data-name="Group 29">
      <text id="INSTAGRAM" transform="translate(798.5 3255.18)" fill="#fff" font-size="49" font-family="Quasimoda-Bold, Quasimoda" font-weight="700" letter-spacing="0.075em"><tspan x="0" y="0">INSTAGRAM</tspan></text>
      <g id="Group_20" data-name="Group 20" transform="translate(906.74 3102.632)">
        <g id="Group_19" data-name="Group 19" clip-path="url(#clip-path)">
          <g id="Group_18" data-name="Group 18" transform="translate(0 0.001)">
            <g id="Group_17" data-name="Group 17" clip-path="url(#clip-path-2)">
              <g id="Group_13" data-name="Group 13" transform="translate(28.336 28.393)" style="mix-blend-mode: multiply;isolation: isolate">
                <g id="Group_12" data-name="Group 12">
                  <g id="Group_11" data-name="Group 11" clip-path="url(#clip-path-3)">
                    <path id="Path_108" data-name="Path 108" d="M22.037,11.93a14.968,14.968,0,0,0-1.971.7c-.363.164-.7.365-1.042.558a14.631,14.631,0,0,0-1.606,1.01c-.331.245-.642.5-.953.771a14.861,14.861,0,0,0-1.321,1.3c-.158.176-.354.314-.5.495-.132.164-.227.354-.354.521-.239.317-.455.642-.665.978-.141.222-.314.42-.443.65-.153.271-.262.567-.4.849-.112.236-.23.466-.331.711-.06.141-.138.268-.193.412a14.712,14.712,0,0,0-.6,1.98l-.006.046c-.014.066-.017.138-.032.2A14.515,14.515,0,0,0,11.338,25c-.023.3-.037.6-.04.9a15.373,15.373,0,0,0,.06,1.635c.032.34.109.665.164,1,.035.21.06.423.1.63a14.56,14.56,0,0,0,.659,2.311c.023.058.055.109.078.167.055.138.127.265.187.4a14.4,14.4,0,0,0,1.033,1.942c.112.178.219.354.337.524.083.121.15.256.239.374a14.257,14.257,0,0,0,1.413,1.646l0,.006L27.815,48.82c-.633.052-1.263.109-1.908.109a22.563,22.563,0,0,1-16.06-6.65l0,0,0,0,17.335,17.4a22.571,22.571,0,0,0,16.063,6.653,23.369,23.369,0,0,0,2.512-.144c.271-.032.532-.083.8-.124.553-.081,1.1-.167,1.64-.285.308-.066.607-.153.912-.233.483-.129.964-.265,1.439-.423.311-.1.613-.219.918-.334.452-.176.895-.36,1.335-.561.3-.135.59-.273.881-.423.435-.222.855-.46,1.272-.708.268-.158.538-.311.8-.481.437-.285.858-.59,1.275-.9.219-.161.443-.314.653-.486.527-.423,1.03-.875,1.517-1.341.083-.081.176-.15.256-.23.561-.555,1.088-1.14,1.591-1.747a1.106,1.106,0,0,1,.078-.086c.043-.055.072-.118.118-.173A22.868,22.868,0,0,0,63.3,54.624c.026-.043.06-.078.083-.121l.026-.052a23.111,23.111,0,0,0,1.255-2.691c.043-.106.106-.2.147-.311.049-.129.072-.271.121-.4a22.136,22.136,0,0,0,.694-2.3c.032-.124.081-.239.109-.363.009-.037.009-.078.017-.115a22.924,22.924,0,0,0,.44-2.9c.006-.092.032-.181.04-.276.04-.529.063-1.062.069-1.6a22.9,22.9,0,0,0-.1-2.319v-.012a23.045,23.045,0,0,0-.46-2.809c-.058-.259-.127-.515-.193-.771q-.276-1.062-.647-2.081c-.055-.147-.083-.3-.141-.446-.026-.069-.063-.13-.092-.2a22.393,22.393,0,0,0-1.142-2.437c-.081-.15-.176-.288-.259-.432a21.956,21.956,0,0,0-1.194-1.859c-.075-.106-.135-.227-.213-.331s-.167-.187-.242-.285a22.265,22.265,0,0,0-1.925-2.236l0,0L42.351,9.867a23.482,23.482,0,0,1,1.928,2.242c.153.2.305.406.452.613.429.6.829,1.22,1.2,1.859.083.147.178.285.259.432a22.988,22.988,0,0,1,1.142,2.44c.083.21.153.429.23.642.247.679.463,1.376.647,2.083.066.256.135.509.193.768a22.635,22.635,0,0,1,.46,2.812,23.07,23.07,0,0,1,.1,2.328c0,.6-.052,1.191-.1,1.781L36.6,15.565a14.609,14.609,0,0,0-10.259-4.3h-.132a14.753,14.753,0,0,0-3.188.365c-.337.075-.65.2-.981.3m9.586,22.763c.268-.357.564-.688.86-1.019a15.2,15.2,0,0,1,1.318-1.3c.311-.271.624-.529.953-.774a14.908,14.908,0,0,1,1.606-1.01c.345-.19.682-.391,1.042-.558a15.007,15.007,0,0,1,1.974-.7c.328-.095.642-.227.981-.3a14.93,14.93,0,0,1,3.186-.365l.132,0a14.572,14.572,0,0,1,4.93.947c-.069.417-.1.843-.19,1.252-.035.164-.086.319-.127.481a23.1,23.1,0,0,1-.7,2.3c-.083.239-.173.475-.265.708a22.952,22.952,0,0,1-1.258,2.694c-.032.058-.072.112-.1.17A22.958,22.958,0,0,1,43.9,40.25c-.066.083-.124.173-.19.256-.5.607-1.033,1.194-1.594,1.75-.078.075-.164.141-.239.216-.492.472-1,.929-1.531,1.355-.21.17-.435.322-.65.483-.417.314-.84.622-1.278.906-.262.167-.53.322-.794.478-.42.25-.843.489-1.278.711-.291.147-.584.288-.878.423q-.66.3-1.338.561c-.3.115-.607.23-.918.334-.472.158-.953.294-1.439.423-.3.078-.6.164-.912.233-.423.092-.86.155-1.292.224a14.675,14.675,0,0,1-.607-2.035c-.043-.207-.069-.42-.1-.63a14.953,14.953,0,0,1-.224-2.63,14.66,14.66,0,0,1,.328-2.794c.012-.063.014-.132.029-.2a14.667,14.667,0,0,1,.8-2.44c.1-.242.219-.475.334-.711a14.663,14.663,0,0,1,.837-1.5c.21-.334.429-.662.665-.976" transform="translate(-9.847 -9.866)" fill="#ccc"/>
                  </g>
                </g>
              </g>
              <g id="Group_16" data-name="Group 16" transform="translate(7.147 7.559)" style="mix-blend-mode: multiply;isolation: isolate">
                <g id="Group_15" data-name="Group 15">
                  <g id="Group_14" data-name="Group 14" clip-path="url(#clip-path-4)">
                    <path id="Path_109" data-name="Path 109" d="M19.821,94.075A24.441,24.441,0,0,0,31.28,100.3c3.563.924,14.164,1.315,24.777,1.315,10.368,0,20.751-.374,24.6-.993a29,29,0,0,0,4.138-.99c.412-.127.794-.291,1.191-.437a24.3,24.3,0,0,0,2.544-1.085c.412-.207.812-.429,1.206-.659A21.67,21.67,0,0,0,91.9,96c.331-.253.673-.492.99-.763a20.839,20.839,0,0,0,2.3-2.319c.1-.115.224-.2.319-.322.017-.02.029-.043.043-.063a22.816,22.816,0,0,0,2.089-3.085c.026-.049.066-.089.095-.138.181-.328.317-.711.486-1.05.36-.719.719-1.436,1.024-2.213.043-.1.1-.19.138-.3q.54-1.416.958-2.955c.049-.19.1-.391.144-.607.066-.305.127-.653.187-1.013.012-.06.023-.109.032-.17.1-.6.187-1.275.268-2,.023-.181.043-.368.063-.555.072-.685.138-1.407.2-2.178.006-.086.014-.164.02-.25l.009-.075c.066-.863.124-1.784.178-2.737.017-.3.032-.613.046-.921.037-.708.072-1.427.1-2.17.014-.383.029-.768.043-1.16.026-.719.049-1.453.072-2.2.011-.386.023-.768.032-1.157.023-.892.04-1.8.058-2.705,0-.233.009-.46.012-.7.017-1.151.032-2.311.04-3.471,0-.314,0-.624,0-.941.006-.855.009-1.7.006-2.553v-1.2c0-.78-.006-1.548-.012-2.314l-.009-1.111c-.009-.866-.02-1.712-.032-2.547-.006-.23-.006-.466-.012-.694q-.026-1.584-.06-3.053c0-.2-.009-.371-.014-.561q-.03-1.157-.063-2.216c-.009-.279-.017-.538-.026-.8-.02-.59-.043-1.145-.066-1.675-.009-.25-.02-.5-.032-.734-.023-.544-.052-1.033-.078-1.494-.009-.153-.017-.325-.026-.466-.035-.544-.069-1.033-.106-1.43l-.009-.1a27.675,27.675,0,0,0-.659-3.868c-.1-.4-.242-.786-.357-1.18-.187-.633-.34-1.283-.576-1.894-.083-.216-.2-.417-.291-.63-.141-.337-.305-.668-.463-1a22.079,22.079,0,0,0-1.338-2.4c-.184-.291-.357-.59-.558-.875-.1-.141-.173-.291-.276-.432A23.139,23.139,0,0,0,94.6,20.028L77.266,2.627A22.672,22.672,0,0,1,79.732,5.6c.2.285.374.581.561.872a22.615,22.615,0,0,1,1.338,2.406c.158.331.319.659.463,1a24.253,24.253,0,0,1,.863,2.518c.115.4.262.78.36,1.186a28.139,28.139,0,0,1,.659,3.865c.037.414.078.932.112,1.517.012.164.02.363.032.541.026.435.049.895.072,1.4l0,.049L71.591,8.3a15.874,15.874,0,0,0-9-4.319C58.756,3.4,49.5,3.142,40.3,3.142c-8.878,0-17.712.239-21.6.662a19.921,19.921,0,0,0-3.065.61c-.311.086-.6.207-.9.308a16.536,16.536,0,0,0-1.859.734c-.325.153-.627.325-.935.5a14.847,14.847,0,0,0-1.508.976c-.282.207-.558.417-.823.642a13.843,13.843,0,0,0-1.3,1.295c-.153.17-.34.3-.483.481-.063.078-.106.17-.17.25-.253.325-.472.682-.7,1.033-.176.273-.386.518-.547.809-.055.1-.092.21-.144.311-.153.288-.279.593-.417.895s-.3.593-.426.915c-.06.158-.092.34-.15.5-.121.351-.224.719-.325,1.088-.078.279-.181.535-.247.826-.092.409-.176.829-.242,1.258-.078.495-.15,1.082-.219,1.732-.023.222-.043.489-.066.728-.037.412-.078.8-.112,1.255-.006.058-.009.127-.012.187-.017.222-.032.463-.049.694-.037.555-.075,1.128-.106,1.735-.017.3-.035.61-.049.921-.032.584-.058,1.183-.083,1.8-.014.342-.029.682-.043,1.033-.026.662-.046,1.341-.069,2.032-.009.317-.02.624-.029.947-.029,1.007-.052,2.035-.075,3.082l-.009.561c-.014.878-.029,1.758-.04,2.65,0,.391-.009.786-.012,1.18q-.009,1.04-.014,2.083c0,.429-.006.855-.006,1.283q0,1.058,0,2.106c0,.374,0,.748,0,1.119q0,1.377.017,2.711c0,.141,0,.291.006.432.012,1.033.026,2.035.046,3.013l.017.786c.014.7.032,1.39.049,2.052.009.311.02.61.029.912.02.584.04,1.145.06,1.689.012.285.023.57.037.84.026.57.052,1.1.081,1.6.012.19.023.394.032.573.04.636.083,1.223.129,1.735l.006.037c.052.587.109,1.094.173,1.491a18.647,18.647,0,0,0,.895,3.43c.049.135.06.3.112.429.043.109.121.193.164.3a14.366,14.366,0,0,0,1.626,2.981c.029.043.043.095.072.135a13.378,13.378,0,0,0,1.266,1.471L21,83.744a44.848,44.848,0,0,1-7.05-.849,30.229,30.229,0,0,1-3.373-1.076A22.877,22.877,0,0,1,2.483,76.67l0,0,0,0ZM84.264,22.641c.009.216.017.417.023.642.012.3.023.593.032.9.02.647.04,1.332.058,2.035.006.247.014.483.02.737.014.636.026,1.315.04,1.986l-7.871-7.9c1.341.1,2.506.21,3.367.34a18.29,18.29,0,0,1,4.331,1.258m-18-2.014c-.092.049-.161.129-.256.173s-.173.058-.256.089a5.366,5.366,0,0,1-1.925.388,5.245,5.245,0,0,1-2.483-.719q2.521.022,4.921.069m-8.622-.083c1.1,0,2.2,0,3.289.012L77.415,37.1a5.162,5.162,0,0,0,5.669,1.188c.086-.035.173-.055.256-.092a5.307,5.307,0,0,0,1.18-.691v.337q0,1.213-.006,2.437c0,.36,0,.722-.006,1.085-.009,1.145-.02,2.294-.037,3.433-.006.227-.009.449-.014.673q-.022,1.39-.058,2.751c-.009.371-.02.74-.029,1.108q-.035,1.135-.072,2.236c-.014.377-.029.754-.043,1.125-.032.754-.066,1.485-.1,2.2-.017.3-.032.613-.046.906-.058.981-.118,1.925-.187,2.812-.006.086-.014.164-.02.25-.063.774-.132,1.494-.2,2.178-.02.19-.04.377-.06.558-.083.719-.17,1.4-.268,1.994-.009.063-.02.112-.032.17-.1.613-.213,1.168-.334,1.62a30.815,30.815,0,0,1-1.094,3.255c-.305.774-.665,1.488-1.022,2.2-.2.4-.371.823-.587,1.2a22.983,22.983,0,0,1-2.086,3.085c-.112.138-.247.25-.363.386a21.112,21.112,0,0,1-2.3,2.319c-.314.271-.656.506-.987.76A21.534,21.534,0,0,1,72.4,80.049c-.394.227-.794.449-1.209.656a24.267,24.267,0,0,1-2.541,1.088c-.4.144-.78.308-1.191.437a29.487,29.487,0,0,1-4.138.987c-3.845.622-14.227,1-24.6,1-5.732,0-11.422-.121-16.037-.371l-.026-.043c-.1-.239-.187-.483-.276-.731a18.616,18.616,0,0,1-.895-3.427c-.06-.4-.118-.9-.173-1.494-.046-.521-.092-1.117-.132-1.773-.012-.181-.02-.391-.032-.581-.029-.5-.058-1.019-.083-1.577-.012-.282-.023-.578-.035-.872q-.035-.8-.06-1.658c-.012-.314-.02-.63-.029-.958-.02-.619-.035-1.266-.049-1.922-.006-.308-.014-.6-.02-.921-.017-.955-.035-1.937-.046-2.944,0-.213,0-.437-.006-.65-.009-.832-.014-1.672-.017-2.527,0-.363,0-.731,0-1.1V58.483c0-.386,0-.774.006-1.16q0-1.131.017-2.256l.009-1.033q.017-1.373.043-2.722l.009-.529q.03-1.588.075-3.114c.006-.279.017-.544.026-.82.02-.737.046-1.462.072-2.164.012-.325.026-.642.04-.961.026-.633.055-1.252.083-1.847.017-.305.032-.613.049-.906.035-.624.072-1.214.112-1.784.014-.21.029-.435.043-.636.04-.535.083-1.01.129-1.485.02-.227.04-.483.06-.7.069-.653.141-1.237.219-1.735a19.319,19.319,0,0,1,.489-2.083c.1-.368.2-.734.325-1.085.173-.492.371-.961.578-1.419.135-.3.262-.607.414-.892.21-.394.455-.754.694-1.122.227-.348.446-.705.7-1.033.2-.259.437-.486.656-.731a14.506,14.506,0,0,1,1.3-1.292c.265-.227.544-.437.823-.645a14.692,14.692,0,0,1,1.511-.973c.305-.173.61-.348.932-.5a16.537,16.537,0,0,1,1.859-.734c.3-.1.587-.222.9-.308a19.883,19.883,0,0,1,3.062-.61c3.891-.42,12.725-.662,21.6-.662" transform="translate(-2.484 -2.627)" fill="#ccc"/>
                  </g>
                </g>
              </g>
              <path id="Path_110" data-name="Path 110" d="M27.306,5.388h.066a5.306,5.306,0,0,1,5.292,5.37,5.4,5.4,0,0,1-5.41,5.335,5.353,5.353,0,0,1,.052-10.705" transform="translate(41.232 10.116)" fill="#fff"/>
              <path id="Path_111" data-name="Path 111" d="M88.639,22.38c.662,7.019,1.091,40.173-.976,47.942-2.763,10.167-9.4,16.184-19.683,17.83-3.845.619-14.227.993-24.6.993-10.613,0-21.214-.391-24.774-1.315C8.495,85.217,2.458,78.63.852,68.389-.342,60.869-.469,25.925,1.7,18.334,4.532,8.452,11.128,2.65,21.131,1c4.532-.742,13.4-1,22.342-1C51.8,0,60.193.227,65.246.5A24.568,24.568,0,0,1,81.522,7.163,23.471,23.471,0,0,1,88.639,22.38M80.063,66.921c1.278-7.842,1.281-36.449.55-43.79-.8-7.839-5.594-13-13.355-14.213-3.839-.584-13.091-.843-22.294-.843-8.878,0-17.712.242-21.6.665-7.778.895-13,5.692-14.245,13.424-1.281,8.2-1.263,38.849-.308,45.007.99,6.409,4.607,10.814,11,12.6,3.462.967,13.822,1.315,23.98,1.315,9.355,0,18.535-.294,21.988-.671,7.847-.86,13.042-5.695,14.282-13.5" transform="translate(0 -0.001)" fill="#fff"/>
              <path id="Path_112" data-name="Path 112" d="M30.6,7.552A22.659,22.659,0,0,1,53.272,30.433,23.08,23.08,0,0,1,30.219,53.276,22.635,22.635,0,0,1,7.551,30.4,23.033,23.033,0,0,1,30.6,7.552m-.334,37.632A14.929,14.929,0,0,0,45.18,30.539,14.634,14.634,0,0,0,30.651,15.61l-.132,0A14.931,14.931,0,0,0,15.609,30.251,14.656,14.656,0,0,0,30.139,45.184h.132" transform="translate(14.178 14.18)" fill="#fff"/>
            </g>
          </g>
        </g>
      </g>
    </g>
  </g>
</svg>
