<svg xmlns="http://www.w3.org/2000/svg" width="21.523" height="21.523" viewBox="0 0 21.523 21.523">
  <path id="Icon_awesome-parking" data-name="Icon awesome-parking" d="M19.217,2.25H2.306A2.307,2.307,0,0,0,0,4.556V21.467a2.307,2.307,0,0,0,2.306,2.306H19.217a2.307,2.307,0,0,0,2.306-2.306V4.556A2.307,2.307,0,0,0,19.217,2.25ZM11.53,16.086H9.224v2.306a.771.771,0,0,1-.769.769H6.918a.771.771,0,0,1-.769-.769V7.631a.771.771,0,0,1,.769-.769H11.53a4.612,4.612,0,1,1,0,9.224Zm0-6.149H9.224v3.075H11.53a1.537,1.537,0,0,0,0-3.075Z" transform="translate(0 -2.25)" fill="#fcfdff"/>
</svg>
