<svg id="Group_426" data-name="Group 426" xmlns="http://www.w3.org/2000/svg" xmlns:xlink="http://www.w3.org/1999/xlink" width="328.848" height="501.377" viewBox="0 0 328.848 501.377">
  <defs>
    <clipPath id="clip-path">
      <rect id="Rectangle_399" data-name="Rectangle 399" width="328.848" height="501.377" fill="none"/>
    </clipPath>
  </defs>
  <g id="Group_425" data-name="Group 425" clip-path="url(#clip-path)">
    <path id="Path_53740" data-name="Path 53740" d="M312.342,394.75a15.718,15.718,0,0,0,.543-2.555,19.436,19.436,0,0,0,.076-4.887,16.393,16.393,0,0,0-.709-3.609,12.71,12.71,0,0,0-1.292-2.839l-.076-.112a13.278,13.278,0,0,0-2.94-3.685,30.614,30.614,0,0,1,1.853-5.7c.72-1.68,1.457-3.134,2.091-4.354.151,0,.3-.007.457-.014a12.611,12.611,0,0,0,1.321-.137l.518-.094a13.339,13.339,0,0,0,2.4-.633,15.922,15.922,0,0,0,3.937-2.105l.27-.205c.443-.353.867-.723,1.285-1.1l.23-.205.439-.471c.313-.327.619-.659.9-1a22.082,22.082,0,0,0,3.624-6.391,25.122,25.122,0,0,0,1.529-6.992,20.067,20.067,0,0,0-.094-3.9,13.369,13.369,0,0,0-1.67-5.045l-3.314-5.329-.8.486c-.252-.2-.515-.392-.777-.579.277-1.191.587-2.6.889-4.178.615-3.242,1.083-6.43,1.385-9.467.176-1.767.309-3.6.381-5.466l.011-.694a12.453,12.453,0,0,0-.407-4.109,8.359,8.359,0,0,0-4.26-5.178l-.554-.259-.363-.13a8.984,8.984,0,0,0-5.563-.086,13.563,13.563,0,0,0-3.933,2.012l-6.524,4.491c-1.1.749-2.17,1.486-3.192,2.2l-.342.245c-3.858,2.425-9.057,5.455-14.3,8.327-4.034-1.288-8.794-.633-13.9,1.943a71.5,71.5,0,0,0-6.146,4.073q-.156.113-.313.216c-.349-.173-9.014-4.534-9.014-4.534-3.631-1.81-7.859-3.847-12.3-5.581-.3-.7-.641-1.565-.86-2.13-.5-1.288-.979-2.454-1.357-3.17a50.3,50.3,0,0,1-2.684-6.585l-2.472-6.923-6.4,3.627q-1.15.653-2.263,1.321c-.594-2.08-1.223-4.135-1.839-6.157-1.137-3.706-2.206-7.2-3.037-10.741-1.594-6.794-3.447-13.721-5.66-21.162l-.086-.284a33.218,33.218,0,0,1,2.1-5.862c.576-1.357,1.112-2.645,1.508-3.771.619-1.767,1.259-3.53,1.9-5.3,1.033-2.846,2.069-5.693,3.012-8.55a8.472,8.472,0,0,0-.6-7.186c-1.526-3.023-2.033-6.747-2.569-10.687-.648-4.761-1.385-10.158-4.12-15.221a8.973,8.973,0,0,0-4.1-3.721,40.191,40.191,0,0,0-8.244-2.562c-.867-.205-1.612-.363-2.044-.511a53.035,53.035,0,0,1-6.733-2.627,18.563,18.563,0,0,1-3.3-2.051,12.048,12.048,0,0,0-2.17-1.432l-.4-.194-.216-.086a11.224,11.224,0,0,0-3.508-.738c-4.869-.371-9.752-.392-14.476-.414-.759-.007-1.515-.007-2.278-.014.176-.709.964-3.926.964-3.926.964-3.818,2.051-8.15,1.6-12.872-.043-.461-.1-.925-.166-1.385a10.85,10.85,0,0,1-.137-1.4,12.444,12.444,0,0,1,.23-1.634l1.3-7.3a11.251,11.251,0,0,1,.288-1.331c.324-.594,2.7-2.242,7.661-3.264a3.231,3.231,0,0,1,.626-.076c.119.065.77.525,2.065,3.26a7.211,7.211,0,0,0,5.369,4.023l.158.072,1.252.079a54.882,54.882,0,0,0,17.395-1.817,8.083,8.083,0,0,0,1.522.982c5.549,2.767,11.044-1.612,13.8-6.844.414-.784.781-1.6,1.141-2.415a7.419,7.419,0,0,1,1.353-2.436c.928-.464,1.979-.856,3.095-1.277a24.765,24.765,0,0,0,8.312-4.523,24,24,0,0,1,3.728-2.472,33.387,33.387,0,0,0,5.909-4.095,26.826,26.826,0,0,0,3.994-4.919,25.358,25.358,0,0,1,1.58-2.173c7.19-8.474,4.527-20.86,3.246-26.812-2-9.305-6.276-17.139-12.364-22.645a53.193,53.193,0,0,0-12-8.172c-8.384-4.181-18.233-6.492-31.245-7.283-6.646-.14-10.518,4.484-13.127,8.006-1.144-.385-2.343-.846-3.577-1.321-5.97-2.31-14.149-5.47-22.45-.475a14.7,14.7,0,0,0-6.466,7.945,36.338,36.338,0,0,0-3.721-1.407,55.357,55.357,0,0,0-11.979-2.03c-.651-.058-1.306-.122-1.954-.187a46.578,46.578,0,0,0-7.445-4.646q-1.42-.707-2.889-1.313a12.982,12.982,0,0,0-3.951-3.033,12.692,12.692,0,0,0-1.716-.709,89.458,89.458,0,0,0-14.426-13.134,81.06,81.06,0,0,0-9.341-5.811s-.594-.3-.73-.363a7.758,7.758,0,0,1,.95-.993,11.814,11.814,0,0,1,1.475-1,13.86,13.86,0,0,0,6.175-6.531c.094-.126.194-.263.306-.41,1.483-2.008,3.973-5.372,3.026-9.313a7.436,7.436,0,0,0-3.944-4.9A9.16,9.16,0,0,0,103.1,28.9c-2.5-.414-4.512.565-8.161,2.335-.982.475-2.537,1.231-3.721,1.724l-.04-.014C85.275,30,81.346,17.047,82.4,8.835A7.53,7.53,0,0,0,81.6,4.2a7.154,7.154,0,0,0-3.12-2.969A7.892,7.892,0,0,0,77.326.767a8.891,8.891,0,0,0-6.4.306L70.784,0l-1.724,2.17a11.084,11.084,0,0,0-2.375,2.465A13.592,13.592,0,0,0,65.574,6.55l-10.658,13.4a18.619,18.619,0,0,0-2.638,4.066l-.173.385c-2.069,4.592-6.369,14.142.457,20.705a82.55,82.55,0,0,0,7.719,6.333c1.767,1.335,3.436,2.594,4.977,3.919l.543.464a44.006,44.006,0,0,1,5.085,4.807c.166.2.223.324.489,1.853.1.6.22,1.249.367,1.943l.468,2.159a89.106,89.106,0,0,0,3.9,14.243C78.694,87.525,84.8,92.545,89.7,96.579c.99.81,1.947,1.6,2.828,2.364,4.307,3.732,8.769,7.33,13.087,10.81l1.234,1c-2.2,1.407-4.419,2.915-6.7,4.523a22.862,22.862,0,0,1-2.731,1.742,10.066,10.066,0,0,0-4.8,4.494c-.8,1.382-1.652,2.717-2.5,4.048-1.353,2.13-2.753,4.329-4.012,6.761a51.444,51.444,0,0,0-2.487,5.955,39.739,39.739,0,0,1-1.986,4.811l-.162.169-.421.792c-7.377,13.865-18.19,25.092-34.894,36.193l-.036,0c-4.275-.554-7.654-.993-10.371,1.09a12.17,12.17,0,0,0-3.228,4.073c-.6,1.119-1.324,2.278-2.051,3.451a54.023,54.023,0,0,0-3.822,6.931c-.266.18-.684.435-1.087.684A53.6,53.6,0,0,0,2.821,226,58.207,58.207,0,0,0,0,244.549a56.06,56.06,0,0,0,.95,9.7c1,5.362,2.846,7.629,6.589,10.687a11.1,11.1,0,0,1,1.871,1.742,18.184,18.184,0,0,1,1.044,2.13,24.555,24.555,0,0,0,2.31,4.354,92.2,92.2,0,0,0,6.783,8.449,134.334,134.334,0,0,0,14.127,13.782,147.245,147.245,0,0,0,15.3,11.306c1.238.8,2.393,1.425,3.508,2.03a16.494,16.494,0,0,1,4.091,2.746c.817.806,1.187,1.508,1.655,3.843,2.843,14.174,11.781,21.4,20.076,25.973.7,3.163,1.457,6.315,2.22,9.464l.695,2.893c1.169,4.854,2.684,9.565,4.156,14.12a157.157,157.157,0,0,1,4.354,15.228c-1.457.936-2.983,2.026-4.692,3.354a9.8,9.8,0,0,0-2.857,3.231,9.976,9.976,0,0,0-1.008,3.7c-1.274,12.6.975,23.346,6.686,31.95q.281.513.572,1.015A68.092,68.092,0,0,0,94.311,443.8l-.079.079a39.268,39.268,0,0,0-5.423,7.244A27.377,27.377,0,0,0,85.1,462.494,25.687,25.687,0,0,0,87.614,475.8a28.276,28.276,0,0,0,8.992,10.471,34.539,34.539,0,0,0,4.84,2.929,36.233,36.233,0,0,0,7.114,2.648,30.769,30.769,0,0,0,6.711.954,46.47,46.47,0,0,0,6.232-.18,71.173,71.173,0,0,0,11.112-1.965,57.957,57.957,0,0,0,17.521-7.388s1.425-.856,1.724-1.04a17.726,17.726,0,0,0,.108,3.21,19.775,19.775,0,0,0,1.544,5.7,15.709,15.709,0,0,0,4.581,5.725,19.385,19.385,0,0,0,3.4,2.141,23.215,23.215,0,0,0,2.677,1.126l.6.205c.417.137.691.2,1.072.292l1.443.345a21.979,21.979,0,0,0,3.562.389,17.7,17.7,0,0,0,7.539-1.572,15.622,15.622,0,0,0,6.06-4.955,16.215,16.215,0,0,0,2.936-6.556l.09-.471a16.125,16.125,0,0,0,.288-2.792,15.521,15.521,0,0,0-.112-2.648,13.665,13.665,0,0,0-.428-2.386,13.187,13.187,0,0,0-.716-2.3,17.366,17.366,0,0,0-1.727-3.559,13.555,13.555,0,0,0-1.95-2.364,14.293,14.293,0,0,0-4.091-3.138,27.119,27.119,0,0,1,.2-4.66l16.474-12.191c12.141-9.039,26.884-20.176,40.457-30.558,15.617-11.968,29.834-23.051,40.029-31.2q1.128-.9,2.2-1.76a19.071,19.071,0,0,0,.014,4.951,14.676,14.676,0,0,0,2.987,7,19.028,19.028,0,0,0,5.351,4.656l.748.432,2.213,1.033c.4.158.835.3,1.5.5a12.11,12.11,0,0,0,2.224.547,16.45,16.45,0,0,0,7.546-.435,15.677,15.677,0,0,0,6.574-3.764,17.333,17.333,0,0,0,4.149-5.822,16.669,16.669,0,0,0,.943-2.609" transform="translate(0 0.003)" fill="#fff"/>
    <path id="Path_53741" data-name="Path 53741" d="M37.2,220.5l6.3-2.85,45.516-25.167,94.966-65.851,60.648-37.693s8.992-8.442,6.79,5.542-5.43,20.993-5.43,20.993l-29.453,32.8L99.239,240.8l-25.891,16.25L43.3,261.325S8.2,248.093,37.2,220.5" transform="translate(66.834 224.547)" fill="#fbcdac"/>
    <path id="Path_53742" data-name="Path 53742" d="M30.74,214.708s-5.542-10.954-1.292-16.222,30.216-22.321,30.216-22.321L133.4,136.274l14.941-.543,13.008-6.394-.1-14.379,22.242-14.635-1.054,15.034L155.982,147.6,119.8,165.856l-23.444,2.458-4.178,19.694-20.468,9.431Z" transform="translate(72.351 260.678)" fill="#f7ad79"/>
    <path id="Path_53743" data-name="Path 53743" d="M177.772,320.762l-2.04-7.693L153.5,282.493l14.379-16.758-13.346-45.873-3.48-30.842-8.589-12.429-5.027,5.452-11.709,20.165L111.8,211.788l-5.293-42.127-5.876-15.5a39.09,39.09,0,0,0,7.6-17.9c1.367-10.363,1.634-20.435,1.634-20.435l3.051-8.456,17.3-5.768,5.516,9.716,19.673-3.454,4.466,3.519,5.473-12.627,7.29-1.346,6.013-3.951L155.7,80.133,118.258,56.538,94.03,40.612,75.613,35.5l-7.535-6.236-7.47-1.547L50.87,22.062,31.939,19.435,29.762,31.191,35.8,38.413,66.282,57.974s-39.5,72.839-40.018,75.326-4.843,123.645-4.843,123.645L25.1,273.029l7.74,20.3,7.895,40.846,5.383.338s-4.552,9.442-4.376,12.335,4.466,3.523,4.466,3.523l9.939-9.108,6.481.047,3-59.626,22.5-37.146,38.359,49.237L139.5,316.21l11.263,15.837L147.894,343.4l17.139,2.512,13.008-6.394ZM128.481,255.07a141.279,141.279,0,0,1,11.968,9.442c6.178,5.459,12.256,16.463,12.256,16.463s-4.361,11.806-4.768,12.5-19.457-38.409-19.457-38.409" transform="translate(55.661 50.5)" fill="#efdcb7"/>
    <path id="Path_53744" data-name="Path 53744" d="M94.712,52.2l13.566-11.331S121.6,29.454,122.233,29.354s19.28-.623,19.28-.623,10.763,1.011,15.124,7.035,9.374,12.425,9.374,12.425l-24.847-9.219L128.85,57.943l8.661,7.755s10.723,7.1,13.609,9.647,10.727,7.866,10.727,7.866l-5.991,11.522s-9.77-9.216-11.349-11.008-8.449-11.015-25.444-4.3-25.718,21.738-25.718,21.738l23.1,22.461L113.8,136.615l-30.871,12.9-27.308-6.769L37.357,152.48s-12.425,9.37-15.185,15.628-4.422,16.639-4.422,16.639l-4.444,6.15-7.9-8.949S2.773,169.94,2.6,167.223s1.159-18.535,9.565-28.5,9.874-11.641,9.874-11.641l10.745-15.516,14.26,1.461S69.415,94.258,70.552,92.3s24.16-40.1,24.16-40.1" transform="translate(6.731 74.655)" fill="#ff8231"/>
    <path id="Path_53745" data-name="Path 53745" d="M6.278,101.02s1.04-6.5,2.163-7.488,7-12.663,19.338-20.9,18.258-9.734,18.258-9.734l27.582,4.012,28.816-7.445.45,47.384,15.79,21.734-8.266.119-7.827-3.454L80.715,135.871l-13.368,7.711L49.83,159.634s-2.979-9.924-3.969-11.044S6.278,101.02,6.278,101.02" transform="translate(16.313 154.507)" fill="#05b397"/>
    <path id="Path_53746" data-name="Path 53746" d="M44.375,63.971l2.512,27.316,3.775,23.965s10.13,2.479,11.015.954S73.043,96.025,78.8,87.58A50.3,50.3,0,0,1,91.158,74.806l7.37-8.492-9.043-2.688-9.539-3.5-5.524-4.214-26.855-.126s-4.98,3.062-3.192,8.183" transform="translate(114.297 144.96)" fill="#05b397"/>
    <path id="Path_53747" data-name="Path 53747" d="M37.135,106.808s-11.954,7.553-12.361,8.255.1,13.771.1,13.771l5.437,17.629,1.961,5.052,9.532,13.638,4.908.669,39.838-22.99s-3.156-7.441-5.117-8.892-6.445-1.249-6.445-1.249l-7.848,3.857-7.751-5.437,1.209-15.5-11.893-.986-7.863,6.031L35.7,125.768Z" transform="translate(63.966 277.531)" fill="#05b397"/>
    <path id="Path_53748" data-name="Path 53748" d="M58.5,110.184s5.819-10.022,9.924-13.872S80.959,85.4,80.959,85.4l5.221,14.678,28.445,14.336L96,130.4Z" transform="translate(152.002 221.909)" fill="#05b397"/>
    <path id="Path_53749" data-name="Path 53749" d="M56.5,119s-6.488.327-9.32,4.664a16.412,16.412,0,0,0-2.2,9.744s.371,5.02,6.517,7.6,10.3,2.479,10.3,2.479,7.812-5.858,8.841-8.723S71.69,119.953,56.5,119" transform="translate(116.726 309.218)" fill="#ff8231"/>
    <path id="Path_53750" data-name="Path 53750" d="M99.3,94.338s-5-1.706-8.946-.4A9.672,9.672,0,0,0,84.9,98.156L82.939,103.6l.166,7.28s3.311,3.919,6.707,5.293a22.358,22.358,0,0,0,7.891,1.188s6.139-5.416,6.488-6.013,2.476-4.951,2.476-4.951l-.363-6.6s-3.836-5.423-7.006-5.466" transform="translate(215.509 242.808)" fill="#ff8231"/>
    <path id="Path_53751" data-name="Path 53751" d="M87.821,105.528l-3.987.68s-3.9,2.925-4.631,7.29,1.781,8.618,1.781,8.618,4.444,4.379,8.233,4.383,6-.709,7.96-2.364a14.6,14.6,0,0,0,3.246-4.9,11.2,11.2,0,0,0,.7-4.987,25.964,25.964,0,0,0-1.227-5.1l-2.253-2.307-2.415-1-2.242,8.676-1.5.525a13.134,13.134,0,0,1-2.332-3.548,25.153,25.153,0,0,1-1.328-5.963" transform="translate(205.449 274.205)" fill="#ff8231"/>
    <path id="Path_53752" data-name="Path 53752" d="M115.538,110.092l-7.236,3.185-3.854-18.805-14.21,8.316L75.16,112.6l-3.9,2.929-.227,11.047,3.03,17.128,28.284-18.111,5.811-1.418a58.146,58.146,0,0,0,.212,6.51c.3,2.573,2.245,9.888,2.245,9.888s1.526,5.275,3.235,2.677,2.037-6.6,1.76-7.161,2.469-15.934,2.814-16.531,2.31-6.045,2.31-6.045-4.2-2.04-5.2-3.419" transform="translate(184.581 245.474)" fill="#7ec6b3"/>
    <path id="Path_53753" data-name="Path 53753" d="M65.4,128.813l-3.073-5.865-13.418,7.812-13.055,8.017-.2,21.007,4.743,2.994,29.176-15.941,1.083,3.508,4.494,5.488L77.773,160l1.418-7.816.515-11.22,1.911-8.251L77.223,131.6l-5.34-2.379Z" transform="translate(92.644 319.467)" fill="#7ec6b3"/>
    <path id="Path_53754" data-name="Path 53754" d="M44.354,145.978s2.386,4.984,6.139,5.963a35.017,35.017,0,0,0,7.845.957,13.159,13.159,0,0,0,6.056-4.646c2.159-3.3,1.842-5.65,1.842-5.65l-.414-3.839L63.814,135.2l-3.1-2.519-3.365-1.234-2.076,6.474-5.264-2.094.23-3.706s-5.333.5-5.7,4.851a86.742,86.742,0,0,0-.191,9.01" transform="translate(115.142 341.545)" fill="#ff8231"/>
    <path id="Path_53755" data-name="Path 53755" d="M53.1,120.028c-2.555-.2-5.552.007-6.344,1.871a5.86,5.86,0,0,0,1.4,5.851c1.587,1.4,6.056,2.8,8.607,2.119s4.854-1.742,4.2-4.761a5.9,5.9,0,0,0-4.653-4.62,26.027,26.027,0,0,0-3.217-.461" transform="translate(120.755 311.724)" fill="#ea580c"/>
    <path id="Path_53756" data-name="Path 53756" d="M58.052,132.26a6.3,6.3,0,0,1,4.163,3.7,4.885,4.885,0,0,1-3.757,6.47c-3.127.756-8.222-.335-9.759-1.108s-2.332,1.8-2.332,1.8-2.091-4.25-2.112-4.613a8.086,8.086,0,0,1,1.177-3.642,10.965,10.965,0,0,1,2-2.231l2.6-1.062,2.152,2.537s3.49,2.846,3.732,2.634a17.492,17.492,0,0,0,1.166-2.012Z" transform="translate(114.992 341.888)" fill="#ea580c"/>
    <path id="Path_53757" data-name="Path 53757" d="M91.394,94.448a10.189,10.189,0,0,0-4.25.565,6.036,6.036,0,0,0-2.58,2.792s.4,2.749,1.842,3.958,5.207,3.39,8.258,2.72,3.57-2.069,3.57-2.069a4.6,4.6,0,0,0,.4-3.616c-.655-1.932-3.375-3.365-3.375-3.365Z" transform="translate(219.732 245.343)" fill="#ea580c"/>
    <path id="Path_53758" data-name="Path 53758" d="M85.648,105.528s-3.35.277-4.825,2.515a5.859,5.859,0,0,0,2.083,8.262c3.53,2.22,8.82,2.886,10.82,1.81a16.982,16.982,0,0,0,4.192-3.069,24.906,24.906,0,0,0,.3-3.782L96.8,108.378l-1.335-1.54-2.415-1-1.544,7.208-.7,1.468s-1.479,1.4-3.008-1.9a31.812,31.812,0,0,1-2.155-7.085" transform="translate(207.622 274.205)" fill="#ea580c"/>
    <path id="Path_53759" data-name="Path 53759" d="M56.673,71.857l35,64.962L87.1,144.761,74.845,128.3,60.3,116.445,46.67,89.086Z" transform="translate(121.267 186.715)" fill="#f7ad79"/>
    <path id="Path_53760" data-name="Path 53760" d="M58.268,78.812l-7.017,9.6L33.169,100.96a84.508,84.508,0,0,0,2.224,35.851c5.506,19.036,15.93,53.167,15.93,53.167l-5.081,6.4-5.934-22.155-7.438-34.89-7.74-20.3s-4.189-14.786-3.678-16.081S36.677,85,46.666,81.435s11.6-2.623,11.6-2.623" transform="translate(55.629 204.494)" fill="#f7ad79"/>
    <path id="Path_53761" data-name="Path 53761" d="M53.425,95.828,71.77,123.759l8.129,8.32s7.744-3.422,11.324-7.1S99,116.533,99,116.533l-.363,19.226-3.613,8.7-13.217,1.684s-12.735-1.634-12.335-3.562,2.76-9.043,2.76-9.043L60.974,117.706s-14.221-17.83-7.549-21.878" transform="translate(134.192 249)" fill="#f7ad79"/>
    <path id="Path_53762" data-name="Path 53762" d="M84.8,59.212,63.912,49.594l-16.43,8.46s-5.228,7.765-5.261,12.785,3.167,17.269,3.167,17.269l-15.448-17.2,3.109-14.034,11.81-10.421S59.64,42.073,65.2,42.422,78.971,49.7,78.971,49.7Z" transform="translate(77.794 110.179)" fill="#f7ad79"/>
    <path id="Path_53763" data-name="Path 53763" d="M68.811,30.6l-11.986,13.2L50.711,56.815l8.982,8.093L39.8,70.64l-14.52,22.53S44.112,73.144,58.945,72.4a79.946,79.946,0,0,1,27.395,3.663l2.415-2.918L78.541,65.76,69.88,58.006,84.652,40.521l14.66,2.033-1.644-6.725S91.485,27.8,82.543,28.794,68.811,30.6,68.811,30.6" transform="translate(65.701 74.596)" fill="#f7ad79"/>
    <path id="Path_53764" data-name="Path 53764" d="M45.861,60.719,24.825,53.547l-9.464-1.8L9.3,65.408l10.266.921,7.625,2.987Z" transform="translate(24.16 134.473)" fill="#f7ad79"/>
    <path id="Path_53765" data-name="Path 53765" d="M76.895,53.626,63.088,73.687S47.748,69.1,33.142,70.7s-21.99,8.114-21.99,8.114,22.807-3.321,37.29,1.493,14.66,2.03,14.66,2.03,29.939-9.1,28.449-10.407S94.2,58.944,94.2,58.944Z" transform="translate(28.977 139.342)" fill="#ec6411"/>
    <path id="Path_53766" data-name="Path 53766" d="M39.393,61.837l-10.23,16.38L34.79,90.844s5.883,8.46,6.823,6.844S54.488,79.243,54.488,79.243L47.072,113.1l8.755,7.24,7.5-12.922,5.059-4.984L63.775,86.8l18.417,17.891-10.928,5.178-9.115,11.983,3.591,4.969L92.25,113.406l3.5,6.358L72.969,131.732,49.4,156.205l-5.452-15.4L6.514,92.427S20.53,64.565,39.393,61.837" transform="translate(16.926 160.678)" fill="#528172"/>
    <path id="Path_53767" data-name="Path 53767" d="M35.183,127.339l-5.574,2.738.641,10.331L39.861,151.3,51.7,138.919l5.855-8.017L49.8,125.465l.518-13.9-11.2-2.584L28.31,117.7Z" transform="translate(73.561 283.176)" fill="#7ec6b3"/>
    <path id="Path_53768" data-name="Path 53768" d="M72.755,90.344l4.009,8.593,20.705,11.731L84.558,123.751s-22.371-8.345-21.508-9.834,6.312-6.294,6.312-6.294l-7.24-14.44,8.6-7.341Z" transform="translate(161.418 223.053)" fill="#7ec6b3"/>
    <path id="Path_53769" data-name="Path 53769" d="M58.654,22.255A57.93,57.93,0,0,1,79.7,28.333C89.805,33.727,92.436,41.4,92.436,41.4s4.789,11.288,5.3,17.729,1.2,10.148,1.2,10.148-5.394,10.1-8.6,11.551a64.274,64.274,0,0,0-8.442,5.3L69.51,80.074Z" transform="translate(152.407 57.828)" fill="#ff8231"/>
    <path id="Path_53770" data-name="Path 53770" d="M42.6,57.891S45.478,73.468,44.056,83.9a187.1,187.1,0,0,1-3.465,18.521l5.113.317,7.028-30.356L50.818,56.876Z" transform="translate(105.472 147.787)" fill="#f7ad79"/>
    <path id="Path_53771" data-name="Path 53771" d="M53.44,58.5s11.249-3.4,17.672-7.621S82.134,38.74,82.134,38.74L95.448,43.3l-6.013,3.947-7.29,1.346-5.473,12.63L72.209,57.7,54.559,61.14Z" transform="translate(138.859 100.662)" fill="#f7ad79"/>
    <path id="Path_53772" data-name="Path 53772" d="M37.957,47.666,61.858,43l12.335,3.85L65.884,36.065l-14.16-4.073Z" transform="translate(98.628 83.126)" fill="#f7ad79"/>
    <path id="Path_53773" data-name="Path 53773" d="M29.45,21.837l14.7,11.184L53.466,31.8l-6.25-8.787-8.114.45Z" transform="translate(76.523 56.742)" fill="#f7ad79"/>
    <path id="Path_53774" data-name="Path 53774" d="M49.45,92.528,71.288,82.9l-4.2-19Z" transform="translate(128.49 166.044)" fill="#f7ad79"/>
    <path id="Path_53775" data-name="Path 53775" d="M37.241,70.6,93.689,157.02,33.124,79.06s.443-11.256,4.117-8.46" transform="translate(86.07 182.289)" fill="#f7ad79"/>
    <path id="Path_53776" data-name="Path 53776" d="M24.917,71.61l8.132,9.932,23.343-16.25-.608-6.578L38.627,66.234Z" transform="translate(64.744 152.561)" fill="#528172"/>
    <path id="Path_53777" data-name="Path 53777" d="M27.179,61.132,16.06,66.6l6.772,6.581L20.356,92.273l10.4-14.494L55.3,103.949l19.284-4.7Z" transform="translate(41.729 158.846)" fill="#7ec6b3"/>
    <path id="Path_53778" data-name="Path 53778" d="M50.834,65.625l19.4,9.939,8.931-7.4-14.811-5.29-7.719-7.053Z" transform="translate(132.087 145.052)" fill="#7ec6b3"/>
    <path id="Path_53779" data-name="Path 53779" d="M22.42,69.282A84.743,84.743,0,0,0,30.97,79.61c1.644,1.745,4.527,3.6,5.027,6.11.716,3.577-4.332,5.887-7.125,7.215-.058.029-.025.122.032.1.878-.417,12.166-5.3,12.652-4.822C35.151,81.96,29.39,75.051,22.92,68.833c-.281-.266-.712.137-.5.45" transform="translate(58.109 178.63)" fill="#490130"/>
    <path id="Path_53780" data-name="Path 53780" d="M84.5,98.818c-.007.155,0,.169,0,.259a2.738,2.738,0,0,0,.032.486,4.106,4.106,0,0,0,.263,1.018,6.647,6.647,0,0,0,2.566,2.972,11.972,11.972,0,0,0,3.458,1.515,8.751,8.751,0,0,0,3.667.252,6.026,6.026,0,0,0,3.123-1.429,4.493,4.493,0,0,0,1.515-2.6,4.558,4.558,0,0,0-.309-2.468,6.018,6.018,0,0,0-1.011-1.6,5.756,5.756,0,0,0-.9-.824l-.356-.245s.122.09.353.252a5.952,5.952,0,0,1,.874.842,4.964,4.964,0,0,1,.928,1.623,3.923,3.923,0,0,1,.108,2.353,4.026,4.026,0,0,1-1.608,2.166,5.152,5.152,0,0,1-2.256.871,7.015,7.015,0,0,0,2.087-2.04s-1.342.407-3.937-.72-2.155-5.038-2.155-5.038c-2.364-.184-4.077.673-4.836,2.821a2,2,0,0,0-.112.738,2.744,2.744,0,0,1-.205-.615,1.472,1.472,0,0,1-.054-.385l-.014-.176.011-.191a3.887,3.887,0,0,1,.255-1.465,3.672,3.672,0,0,1,2.087-1.929,7.981,7.981,0,0,1,2.756-.533,10.578,10.578,0,0,1,2.422.2,11.514,11.514,0,0,1,1.817.507,10.667,10.667,0,0,1,1.1.515c.248.133.378.205.378.205s-.13-.072-.371-.216a10.1,10.1,0,0,0-1.094-.536,18.486,18.486,0,0,0-1.806-.59,14.677,14.677,0,0,0-2.443-.4,8.393,8.393,0,0,0-2.969.241,4.509,4.509,0,0,0-2.782,2.094,5.091,5.091,0,0,0-.547,1.835Z" transform="translate(219.548 245.223)" fill="#490130"/>
    <path id="Path_53781" data-name="Path 53781" d="M301.223,390.294a11.035,11.035,0,0,0,.695-1.9,9.472,9.472,0,0,0,.389-1.842,9.182,9.182,0,0,0,.13-1.716,8.478,8.478,0,0,0-.086-1.54,10.669,10.669,0,0,0-.468-2.454,6.3,6.3,0,0,0-.669-1.454c-.058-.09-.09-.14-.133-.2a7.459,7.459,0,0,0-3.109-3.174,6.517,6.517,0,0,0-1.13-.486c.1-1.051.176-2.083.335-3.059a35.357,35.357,0,0,1,2.472-8.222c.993-2.325,1.983-4.2,2.674-5.509.709-1.31,1.116-2.055,1.116-2.055l-.644-.342.425-.8a15.139,15.139,0,0,0,1.555.4,11.756,11.756,0,0,0,2.663.2c.237-.014.421-.022.7-.058l.637-.115a6.778,6.778,0,0,0,1.306-.36,9.546,9.546,0,0,0,2.389-1.3c.353-.281.691-.579,1.029-.878.3-.335.626-.648.907-1a16.218,16.218,0,0,0,2.616-4.642,17.5,17.5,0,0,0,.756-2.555,16.363,16.363,0,0,0,.385-2.652,13.948,13.948,0,0,0-.054-2.71,7.151,7.151,0,0,0-.871-2.717l-.14.086a8.725,8.725,0,0,0-3.3-3.786,16.225,16.225,0,0,0-3.375-1.609c0-.014.061-.212.173-.59.112-.4.273-.99.479-1.734.4-1.508.918-3.652,1.414-6.247s.979-5.646,1.306-8.931c.162-1.644.288-3.347.353-5.081a9.345,9.345,0,0,0-.155-2.857,2.176,2.176,0,0,0-1.288-1.45,2.8,2.8,0,0,0-1.756.011,8.823,8.823,0,0,0-2.465,1.371q-1.074.734-2.134,1.465c-1.414.975-2.8,1.929-4.149,2.854-1.292.878-2.53,1.742-3.71,2.558-4.03,2.537-9.4,5.66-14.851,8.647q-1.4.766-2.789,1.515a1.514,1.514,0,0,0-.637-.662c-3.221-1.785-7.416-.464-10.425,1.054-.961.486-8.755,6.013-8.827,5.948a2.212,2.212,0,0,0-.518-.349c-8.384-4-16.6-8.712-25.336-11.886-1.31-1.076-2.677-5.793-3.559-7.449a54.734,54.734,0,0,1-3.048-7.409,90.415,90.415,0,0,0-9.23,5.995c-1.619-8.6-4.962-16.984-6.974-25.538-1.662-7.071-3.5-13.868-5.574-20.824a6.2,6.2,0,0,1-.363-2.1c.216-3.458,2.825-8.309,3.98-11.612,1.608-4.6,3.357-9.144,4.883-13.768a3.174,3.174,0,0,0,.212-1.011,3.294,3.294,0,0,0-.461-1.421c-4.073-8.064-2.3-17.78-6.61-25.757-1.054-1.95-8.8-3.163-10.928-3.875-4.181-1.407-8.4-2.926-11.9-5.7a5.267,5.267,0,0,0-1.274-.828,5.331,5.331,0,0,0-1.637-.3c-8.222-.623-16.563-.22-24.847-.6,1.767-3.645,2.544-7.51,3.526-11.425.892-3.537,1.788-7.161,1.443-10.792a33.46,33.46,0,0,1-.327-3.433,15.955,15.955,0,0,1,.324-2.641q.648-3.654,1.3-7.3a11.531,11.531,0,0,1,.752-2.825c1.821-3.987,8.1-5.93,12.029-6.74,5.074-1.047,7.474,2.249,9.525,6.574a1.051,1.051,0,0,0,1.292.543.453.453,0,0,0,.288.122c6.574.407,12.037-.615,18.248-2.382a1.58,1.58,0,0,1,1.234-.007,2,2,0,0,1,.619.871c2,3.886,5.642-.734,6.769-2.875,1.454-2.756,2.105-5.948,5.2-7.492,3.476-1.734,7.157-2.325,10.065-4.9,2.933-2.594,6.675-3.865,9.568-6.5,1.943-1.778,3.314-4.509,5.027-6.528,4.876-5.743,3.39-14.671,1.918-21.515C245,98.73,241.713,91.749,236.106,86.679,225.02,76.65,211.155,73.7,196.877,72.821c-5.135-.112-7.733,5.588-10.551,8.8-8.355-1.223-16.787-8.589-25.29-3.472-4.915,2.958-5.092,8.823-3.472,14.037A31.15,31.15,0,0,0,145.8,85.283c-4.728-1.5-9.712-1.573-14.6-2.166a1.515,1.515,0,0,0-.137-.173,39.7,39.7,0,0,0-11.5-6.589,7.13,7.13,0,0,0-3.839-3.037,5.406,5.406,0,0,0-1.389-.3,1.966,1.966,0,0,0-.137-.2A84.241,84.241,0,0,0,99.687,59.352a74.025,74.025,0,0,0-8.625-5.369c-1.868-.99-5.347-1.774-6.294-3.875a25.225,25.225,0,0,1,5.423-7.657c2.267-1.922,4.919-2.44,6.078-5.542.446-1.2,5.358-5.941,1.367-6.6-1.493-.245-11.54,6.207-12.648,4.181a.979.979,0,0,0-.489-.453C74.714,29.723,70.58,12.886,71.789,3.419a1.558,1.558,0,0,0-.076-.936,1.242,1.242,0,0,0-.745-.522C65.2.108,63.52,15.355,65.984,18.59c-1.688-2.213-3.516-5.358-3.875-8.06Q58.7,14.815,55.29,19.1a13.443,13.443,0,0,0-1.835,2.753c-1.839,4.095-4.879,10.446-1.076,14.1S60.8,42.53,64.819,45.977a53.8,53.8,0,0,1,6.358,6.017c1.637,1.972,1.573,3.8,2.145,6.43,1.169,5.39,2.076,10.306,4.084,15.488C79.86,80.256,87.1,85.232,92.112,89.579c6.844,5.93,14.019,11.457,20.99,17.233a160.785,160.785,0,0,0-13.847,8.813,28.493,28.493,0,0,1-3.2,2.058,6.737,6.737,0,0,0-1.774,1.112,5.547,5.547,0,0,0-.777,1.119c-2.073,3.58-4.458,6.866-6.369,10.558s-2.908,8.284-5.056,11.742l-.032.04c-9.14,17.175-22.476,29.05-38.568,39.521a.119.119,0,0,0-.05.076c-.122.392-7.254-1.173-8.366-.317a6.337,6.337,0,0,0-1.569,2.119c-1.788,3.3-4.469,6.959-5.8,10.291-.579,1.447-2.047,2.292-3.375,3.105A47.619,47.619,0,0,0,4.239,223.206,52.282,52.282,0,0,0,1.72,239.787a49.9,49.9,0,0,0,.842,8.625c.687,3.667,1.54,4.685,4.422,7.038a14.022,14.022,0,0,1,3.21,3.264c1.274,2.04,1.817,4.253,3.192,6.24a86.424,86.424,0,0,0,6.337,7.877A128.382,128.382,0,0,0,33.2,285.973a140.321,140.321,0,0,0,14.66,10.835c3.21,2.062,5.815,2.836,8.593,5.57,2.1,2.073,2.814,4.207,3.379,7.031C62.149,320.96,69,327.322,79.353,332.5c.072.421.112.842.205,1.267.975,4.6,2.116,9.165,3.213,13.735,2.753,11.465,7.632,22.292,9.356,34a44.6,44.6,0,0,0-7.751,5.027,2.981,2.981,0,0,0-1.511,2.677c-.986,9.7.234,19.827,5.826,28.114q.54.993,1.13,1.972c1.508,7.585,3.613,14.311,7.765,20.928a43.108,43.108,0,0,0-3.3,3.181,33.359,33.359,0,0,0-4.584,6.11,21.267,21.267,0,0,0-2.9,8.784,19.481,19.481,0,0,0,1.907,10.112,22.237,22.237,0,0,0,7.06,8.165,29.356,29.356,0,0,0,9.9,4.606,24.8,24.8,0,0,0,5.423.759,39.633,39.633,0,0,0,5.376-.169,64.586,64.586,0,0,0,10.144-1.792,58.8,58.8,0,0,0,9.108-3.073,66.1,66.1,0,0,0,7.546-4.091c4.523-2.749,8.19-5.192,10.752-6.9l3.231-2.2.817-.515c.148.5.309,1,.5,1.529.428,1.216.961,2.519,1.576,3.861.1.245.22.507.331.759a7.177,7.177,0,0,0-3.717,3.289c-1.137,1.9-.068,4.171.716,5.412a5.849,5.849,0,0,1-1.288-1.475,4.247,4.247,0,0,1-.5-2.979,5.7,5.7,0,0,1,1.173-2.418,6.207,6.207,0,0,1,1.637-1.4,8.384,8.384,0,0,1,1.745-.817l-.5.1a7.373,7.373,0,0,0-1.378.464,6.624,6.624,0,0,0-1.9,1.281,5.862,5.862,0,0,0-1.144,1.54c-.05.072-.122.191-.255.4a9.171,9.171,0,0,0-.72,1.454,11.407,11.407,0,0,0-.374,1.137l-.112.273,0,.266a11.832,11.832,0,0,0-.212,4.1,13.122,13.122,0,0,0,1,3.84,9.588,9.588,0,0,0,2.821,3.512,14.656,14.656,0,0,0,4.2,2.253l.576.191c.281.094.407.1.615.162l1.144.284a16.36,16.36,0,0,0,2.512.277,11.5,11.5,0,0,0,4.89-1.036,9.779,9.779,0,0,0,3.714-3.12,10.2,10.2,0,0,0,1.781-4.113,10.766,10.766,0,0,0,.223-2.051,9.789,9.789,0,0,0-.086-1.911,9.653,9.653,0,0,0-.324-1.72,8.924,8.924,0,0,0-.493-1.49,10.888,10.888,0,0,0-1.1-2.281,7.108,7.108,0,0,0-1.036-1.256c-.061-.058-.094-.083-.14-.13a8.508,8.508,0,0,0-4.055-2.587,7.626,7.626,0,0,0-1.234-.248c-.155-.95-.313-1.882-.425-2.771a32.87,32.87,0,0,1,.309-8.625c.076-.471.158-.914.237-1.353l18.485-13.678c11.072-8.244,25.772-19.323,40.392-30.507s29.144-22.5,39.932-31.13c5.4-4.307,9.87-7.938,12.99-10.493,2.659-2.188,4.332-3.57,4.768-3.926a6.984,6.984,0,0,0,2.674.738l.022-.345.144.058a32.579,32.579,0,0,0,.1,3.512c.1,1.277.288,2.663.536,4.106.209,1.349.421,2.789.716,4.257-.1-.428-.184-.745-.184-.745l-.633-2.994a4.482,4.482,0,0,0-.932.007,6.9,6.9,0,0,1,1.018-.227s-.173.007-.5.014a7.405,7.405,0,0,0-1.4.205,7,7,0,0,0-2.062.86,6.28,6.28,0,0,0-1.713,1.551c-.047.043-.076.076-.133.133a9.84,9.84,0,0,0-1.018,1.231,12.618,12.618,0,0,0-2.127,5.318,13.958,13.958,0,0,0-.079,3.9,8.635,8.635,0,0,0,1.767,4.1,12.828,12.828,0,0,0,3.57,3.087l.518.3.565.27,1.051.493c.374.151.8.263,1.2.392a5.691,5.691,0,0,0,1.22.3,10.356,10.356,0,0,0,4.923-.288,9.952,9.952,0,0,0,4.1-2.418,11.032,11.032,0,0,0,2.551-3.58m-20.043-9.2a11.349,11.349,0,0,1,1.026-2.5c.1-.18.187-.317.281-.471a4.766,4.766,0,0,0-.493,1.637c-.284.45-.561.907-.813,1.339m35.57-37.319c-.047.4-.108.806-.191,1.205-.032.173-.079.342-.119.511-1.49,1.306-4.3,3.4-6.686,3.167a12.435,12.435,0,0,1-2.076,4.789,5.574,5.574,0,0,1-2.936,1.713,16.95,16.95,0,0,1-4.617-1.6,13.275,13.275,0,0,1-4.027-3.015,6.778,6.778,0,0,1-1.6-3.141l-.054-.3a5.373,5.373,0,0,1-.014-.54l.076-.014-.094-.612-.144-.928a13.168,13.168,0,0,1,1.457-7.276,5.2,5.2,0,0,0,.014.982,9,9,0,0,0,3.5,5.657,13.136,13.136,0,0,0,3.2,1.954,14.707,14.707,0,0,0,8.64,1.252,8.729,8.729,0,0,0,5.667-3.8m-3.724-9.1a6.642,6.642,0,0,1,3.167,6.729,6.755,6.755,0,0,1-5.4,4.754A13.361,13.361,0,0,1,303,344.99c-2.659-1.126-5.52-3.7-5.833-6.445-.184-1.616.569-3.048,2.235-4.253,4.189-3.033,9.86-1.994,13.62.381m-96.437-17.539c3.1-3.314,6.531-6.322,9.716-9.554.612-.417,1.227-.828,1.839-1.249,1.72,4.127,3.393,8.284,5.092,12.425a1.108,1.108,0,0,0,1.778.4c7.01,5.031,14.811,9.018,22.271,13.361a70.291,70.291,0,0,0-9.5,9.154c-7.74-3.789-15.47-7.452-23.418-10.745a4.413,4.413,0,0,0-.669-.723c.5.428,8.489-7.873,9.025-8.51-3.314,1.159-6.61,2.429-9.968,3.454-3.3,1.008-4,1.288-6.243-1.511-.515-.641-1.67-1.623-1.922-2.393-.554-1.716.727-2.749,2-4.109m-22.987-74.8a.4.4,0,0,0,.04.443c.011.2.043.4.05.6-1,1.022-1.968,2.076-2.951,3.188-.281.317.151.705.482.515,1.447-.838,2.832-1.666,4.181-2.569a1.846,1.846,0,0,0,.522.583l.022.036a.491.491,0,0,0,.011.482c5.3,9.392,7.287,21.011,10.741,31.166,2.047,6.027,4.16,12.033,6.229,18.053,1.562,5,3.2,9.975,4.743,14.984a62.046,62.046,0,0,0-14.422,15.639c-.1-.22-.205-.428-.36-.752a14.946,14.946,0,0,0-.856-1.616c-.367-.6-.73-1.324-1.227-2.04a82.431,82.431,0,0,0-7.873-10.079,171.4,171.4,0,0,0-13.242-13.141l-.3.381c-.921-1.688-1.817-3.393-2.738-5.077-3.829-6.963-7.7-13.969-11.8-20.835,8.316-14.412,15.257-31.069,25.531-44.746a50.356,50.356,0,0,1,3.221,14.782m6.258,94.937-.032-.065.036-.061,0,.126m-1.184-2.371c-5.049-10.1-10.342-20.1-15.7-30.054,2.558,2.026,5.685,4.617,8.679,7.384a81.438,81.438,0,0,1,8.7,9.147c.561.659.979,1.328,1.4,1.889a14.615,14.615,0,0,1,1,1.515c.194.324.324.536.453.748a44.377,44.377,0,0,0-4.53,9.37M183.85,198.341a91.737,91.737,0,0,0,21.187,10.36c-1.587-.547-7.992,6.718-9.075,7.87a93.554,93.554,0,0,0-7.747,9.6c-2.753,3.85-5.157,7.852-7.589,11.853-1.608,2.648-3.231,5.293-4.977,7.895,2.533-11.4,5.142-23,10.993-33.1-4.66,5.732-9.622,11.317-13.879,17.355a115.892,115.892,0,0,0-9.338,15.455A89.83,89.83,0,0,1,168.87,230.7c2.551-5.865,4.145-12.191,6.783-18a89.759,89.759,0,0,1,8.2-14.361m-2.688-.119q-1.614,3.006-2.933,6.089a.5.5,0,0,0-.871.119l-.043.108a1.777,1.777,0,0,0-1.432-1.749,105.583,105.583,0,0,0-20.68-2.814c.77-1.256,1.515-2.555,2.2-3.915a219.943,219.943,0,0,0,23.76,2.163m-18.935,27.985-.011-.144c.029-.029.054-.05.079-.079-.022.076-.043.148-.068.223m58.4-82.771c-2.731.446-3.231-1.511-5.869-2.749,1.914.9,1.439,5.135,1,6.538a19.181,19.181,0,0,1-5.182,7.866,17.417,17.417,0,0,0-3.667-3.472c1.778,1.3-6.8,2.8-7.121,2.864-3.8.72-7.629,1.324-11.479,1.734a.887.887,0,0,0-.058-.223,30.408,30.408,0,0,0-6.4-8.687.634.634,0,0,0-.083-.05,1.155,1.155,0,0,0-1.31-.939c-.381.043-.752.1-1.13.148a1.4,1.4,0,0,0-.41-.025c-.745.108-1.515.255-2.3.435a65.119,65.119,0,0,0-15.1,4.433c-7.312-11.277-21.734-13.58-30.4-23.4.255-.392.522-.777.777-1.166a87.106,87.106,0,0,1,7.236-6.017,1.429,1.429,0,0,0,.54-.345c.079-.076.162-.155.241-.234,3.055-2.256,6.2-4.39,9.367-6.549,3.235.8,6.474,1.778,9.644,2.832,1.652,1.95,3.937,4.682,5.394,6.546l2.494,3.181s9.439.943,16.434,5.556,7.3,7.7,7.3,7.7-.824-5.218,2.576-8.669c2.436-2.469,8.3-7.6,7.693-.853a3.173,3.173,0,0,1,1.468-1.461c1.547-.587,6.7,2.778,8.129,3.555a138.2,138.2,0,0,0,14.019,6.549c.63.6,1.259,1.213,1.889,1.817a11.113,11.113,0,0,1-5.7,3.087m11.569-55.9c5.686,4.57,8.985,10.864,10.587,17.888,1.3,5.667,3.2,11.929,2.055,17.78-.9,4.606-5.941,9.2-9.752,11.8a11.162,11.162,0,0,1-7.5,1.961,1.5,1.5,0,0,0-.993-1.252q-3.848-1.565-7.553-3.278a85.793,85.793,0,0,0,9.442,2.94c1.346.338,3.739-3.17,8.651-7.082s6.524-6.56,6.524-6.56.871-19.716-12.468-31.806A85.073,85.073,0,0,0,213.8,77.571a66.584,66.584,0,0,1,18.4,9.968M160.166,83.7c1-2.857,3.541-4.843,8.323-4.642,5.819.248,11.432,2.85,16.711,5.189a12.637,12.637,0,0,0-1.479,10.961,51.831,51.831,0,0,0,11.99,22.1A51.632,51.632,0,0,1,180.8,91.443a.258.258,0,0,0-.493.047,33.423,33.423,0,0,0,.371,6.117c-.13-.324-.2-.522-.2-.522Zm-56.682,4.149c-6.013-2.771-13.926-3.616-18.856-8.114a3.584,3.584,0,0,1-1.385-2.263c-.094-1.5,2.562-4.516,3.832-5.218,2.109-1.162,5.822.22,8.424.72,5.682,1.1,11.349,2.267,17.049,3.249a2.4,2.4,0,0,0,1.205,0,7.631,7.631,0,0,0,.9-.54,1.785,1.785,0,0,1,1.828.115,3.95,3.95,0,0,1,.968,1.2c.716,1.137,5.117,6.4,6.3,6.348-.223.011-.45.011-.673.025-2.472.162-4.919.651-7.377.964a.253.253,0,0,0,.05.5c16.294-.864,32.828,1.267,44.512,13.523a72.635,72.635,0,0,1,9.086,11.958c-5.369,1.015-11.907-7.812-16.445-9.939-5.311-2.49-12.26-2.8-18.017-2.393-1.5.1-9.435,2.433-10.381,1.331a2.414,2.414,0,0,0-.748-.666c-6.632-3.829-13.31-7.6-20.273-10.806M15.078,228.193c-1.457,2.008-6.5,7.531-6.38,10.029-.4-8.352.158-17.172,3.775-24.8,2.9-6.128,9.424-10.511,15.149-13.98l.784-.471a15.711,15.711,0,0,1,15.88.263c.281.166.554-.291.3-.486-4.548-3.537-9.435-5.157-14.876-4.264a60.986,60.986,0,0,1,4.667-8.935c.734-1.133,1.742-2.407,3.084-2.285,6.97.623,13.843.961,20.6,3.041.223.068.378-.248.151-.342a65.059,65.059,0,0,0-8.9-2.969c.407-.151.82-.3,1.216-.461,4.9.374,10.658,1.59,14.613,4.3a.237.237,0,0,0,.3-.367c-3.156-2.807-4.872-5.462-9.252-6.16,1.026-.432,10.525-5.117,9.583-6.671a57.73,57.73,0,0,1,6.312,14.717c-.838-5.721.241-11.648-1.169-17.193a1.414,1.414,0,0,0,.227-.194,63.5,63.5,0,0,1,5.761-6.8c-.133,4.5,0,9.561,1.411,13.883C77,174.016,79,167,79.813,162.958c1.036-5.11,3.1-10.065,4.973-14.955,3.5-3.465,7.01-6.916,10.63-10.255,7.236-2.411,14.613-2.943,22.3-2.976.166,0,.212-.277.05-.324-.907-.273-15.772-4.063-16.027-3.019a83.209,83.209,0,0,1,4.16-13.681c.738-1.817,5.527-3.825,7.071-5.164,1.583-1.382,3.073-2.886,4.667-4.286,3.066-2.7,6.549-6.322,10.741-7.1a77.66,77.66,0,0,1,13.037-1.256c3.469-.05,8.226.7,11.249,2.526,3.3,1.994,5.351,6.153,8.55,8.539-4.091-3.069-13.332-5.016-17.773-2.076-2.594,1.716-4.57,5.049-6.585,7.4-2.958,3.451-5.495,7.208-8.629,10.5a1.1,1.1,0,0,0-.381.669,1.068,1.068,0,0,0,.335.68c8.669,10.255,23.933,13.3,31.166,24.861a1.208,1.208,0,0,0,.633.507,25.121,25.121,0,0,0-.86,7.413,27.8,27.8,0,0,0-11.763-11.828,1.454,1.454,0,0,0-.727-.587c-.273-.1-.551-.191-.824-.284-.083-.072-.169-.144-.252-.216a.268.268,0,0,0-.371,0,31.44,31.44,0,0,0-12.551-1.249,55.309,55.309,0,0,0-25.678,6.294c-9.467,4.89-18.838,11.968-20.482,23.206l-1.425-2.634c1.133,6.074,6.815,10.579,11.644,13.811,1.385.928,18.312,9.64,18.73,8.039-.885,3.39-1.868,6.743-2.767,10.133a2.012,2.012,0,0,0,.025,1.173c-7.262,2.76-15.272,7.244-23.213,7.19-6.819-.043-13.2-3.084-19.687-4.8-9.316-2.469-19.525-3.929-28.924-1.029a43.849,43.849,0,0,0-18.7,12,79.387,79.387,0,0,0-7.071,8.006m102.785-32.253v0M57.888,212.709c-.068.014-.14.022-.209.032l.014-.05.194.018M13.333,247.3c-.756-11.81,13.023-23,22.738-27.344a49.317,49.317,0,0,1,7.4-2.587c-6.779,1.806-12.925,9.2-17.2,14.3a56.352,56.352,0,0,0-6.844,10.025c-2.314,4.458-4.725,10.45-3.742,15.552a40.778,40.778,0,0,1-2.353-9.942m20.684,13.991c.007-.058.014-.119.025-.176l.058.065-.083.112m8.1-1.889.029-.047.036.079-.065-.032m20.273,29.064-.029-.05.054.018-.025.032m8.226,11.04c-2.335,2.134-4.775,4.16-7.294,6.052a1.122,1.122,0,0,0-.4.569.676.676,0,0,0-.482-.381c.014-.284.032-.565.032-.856-.014-2.181-.446-4.271-.626-6.43a2.611,2.611,0,0,0-.23-.874c2.62-6.031,4.872-12.166,7.366-18.262a.135.135,0,0,0-.248-.108c-1.209,2.152-2.447,4.278-3.685,6.4a21.626,21.626,0,0,0-3.793-5.675,16.561,16.561,0,0,0-3.084-2.584c2.458-11.547,4.117-23.185,5.995-34.851-2.346,5.531-4.926,11.331-6.394,17.121a.6.6,0,0,0-.576.266c-1.742,2.515-3.588,4.973-5.333,7.492a40.841,40.841,0,0,1-8.712-9.831c1.6-2.861,3.17-5.732,4.836-8.557.184-.313-.335-.633-.543-.335-1.868,2.62-3.807,5.175-5.729,7.751a.811.811,0,0,0-.475.641q-1,1.355-1.983,2.72a3.12,3.12,0,0,0-.407.457,2.01,2.01,0,0,0-.407-.651c-5.124-5.567-10.3-11.137-16.232-15.844l.029-.036a62.417,62.417,0,0,1,27.337-25.056c10.471-4.995,23.915-2.227,34.43,1a1.269,1.269,0,0,0,1.094-.155.384.384,0,0,0,.09-.011c9.8-3.008,19.471-6.6,29.086-10.2-.086.658-.166,1.31-.248,1.965-.122.979-4.552,3.526-5.419,4.2-2.13,1.659-4.257,3.321-6.344,5.034-3.829,3.145-7.092,6.491-11.173,9.295,3-2.065,3.724,4.293,3.764,5.563a1.378,1.378,0,0,0,.144.583c-3.436-2.012-6.362-4.386-10.378-5.193,1.965.45,5.009,4.386,6.585,5.725,2.062,1.752,4.171,3.44,6.3,5.106,4.854,3.8,9.86,7.4,14.825,11.051,3.239,7.891,6.934,15.369,10.918,22.861a23.768,23.768,0,0,0-6.1-1.875l-.194-.018c-10.759-.82-21.162,7.082-29.827,12.184A71.264,71.264,0,0,0,70.619,299.5m49.2-19.129c-.047.061-.094.13-.137.2-.007-.072-.022-.144-.029-.216a1.365,1.365,0,0,0,.166.018M92.807,415.181c-2.065-4.383-4.311-8.51-5.563-13.231a84.943,84.943,0,0,1-2.037-13.2.838.838,0,0,0,.6-.216,58.25,58.25,0,0,1,5.462-4.35c1.842-1.317,3.67-2.94,5.606-4.1.255-.151.032-.536-.234-.446-1.2.407-2.3.838-3.343,1.3a2.31,2.31,0,0,0,.32-1.08c.086-4.408-2.44-10.032-3.188-14.484-.936-5.563-1.709-11.162-3.059-16.65-1.1-4.476-2.217-8.949-3.4-13.4-1.324-4.984-3.893-9.521-5.2-14.512a53.976,53.976,0,0,1-1.785-11.357q.184-3.476.569-6.945c5.146-5.509,10.083-11.141,15.016-16.833q2.823-1.49,5.718-2.8a102.547,102.547,0,0,1,16.815-4.948,1.813,1.813,0,0,0,.281-.086c.457.255.91.511,1.385.745.6.392,1.205.788,1.806,1.18a27.076,27.076,0,0,1-4.03,9.723c-.025.04-5.085-.846-5.642-.831a63.433,63.433,0,0,0-6.322.979c4.055-.54,7.733,1.231,11.414,2.53a117.727,117.727,0,0,1,2.328,21.436c-.918,6.211-1.573,12.486-2.134,18.733a233.7,233.7,0,0,0-1.22,35.513q-.34,8.4-.371,16.859a1.5,1.5,0,0,0,.158.705,14.753,14.753,0,0,0-7.535,2.5A25.137,25.137,0,0,0,97.7,392.5l-.712.335-.112-12.742-8.316,10.072,1.594,11.216,4.534,13.08c-.583.367-1.166.73-1.742,1.1a2.437,2.437,0,0,0-.137-.381m48.5-119.7c10.122,14.264,21.13,27.931,32.35,40.86a.512.512,0,0,0,.252.457,8.221,8.221,0,0,1,3.465,4.829,1.456,1.456,0,0,0,.263.569c4.214,12.184,10.932,23.253,18.992,33.368.266.428.525.871.8,1.3a1.065,1.065,0,0,0,.119.6,11.108,11.108,0,0,1,1.087,2.85c-15.4,10.151-30.939,20.09-46.693,29.687-1.6.972-3.21,1.94-4.811,2.911a1.747,1.747,0,0,0-.288-1.547,17.565,17.565,0,0,0-2.274-2.594c-3.127-2.958-5.718-5.218-10.166-4.261-.608.133-7.2,2.5-6.92,2.843a13.132,13.132,0,0,0-5.574-3.613c.54-5.412-.169-10.864-.317-16.29a.721.721,0,0,0-1.1-.569,1.1,1.1,0,0,0-.583-.453,19,19,0,0,0-4.538-.979,1.624,1.624,0,0,0,.392-1.051c.45-19.644,1.846-39.338,3.67-58.938a1.4,1.4,0,0,0,1.353-.367c8.633-8.489,15.988-18.323,20.522-29.611M92.1,422.068c-.644-1.148-1.044-2.109-.691-2.281a1.46,1.46,0,0,0,.82-1.123,1.392,1.392,0,0,0,.266-.173c1.839-1.724,3.494-3.638,5.315-5.39a.217.217,0,0,0,.043-.256l.263-.165Zm10.018-4.556-.6-6.949,5.513-3.422-6.812-9.5c2.332-2.148,5.808-5.549,8.514-8.222,3.217-.263,6.52.741,9.608,1.648-.651,4.3-1.09,8.579-1.357,12.972a1.6,1.6,0,0,0,.961,1.583,2.468,2.468,0,0,0,.363.309,67.3,67.3,0,0,0,4.977,5.344,25.322,25.322,0,0,0-6.887,10.77c-.13.414.374.806.687.425,4.973-6.056,10.151-11.551,17.344-14.9q1.182-.27,2.357-.579c2.22-.583,6.862,5.847,6.11,8-.687,1.958-4.512,3.2-6.258,4.246q-4.442,2.666-8.906,5.293-6.078,3.579-12.177,7.125c-2.987,1.734-6.308,4.073-9.687,5.855.691-.867,1.375-1.742,2.029-2.638,1.878-2.576,2.584-6.027,4.84-8.435ZM152.443,459.7a41.123,41.123,0,0,0-11.27,2.911,4.633,4.633,0,0,0-.327-1.659,5.706,5.706,0,0,0-1.036-1.724,5.852,5.852,0,0,0-1.537-1.162,13.493,13.493,0,0,0-3.134-1.115c-.939-.23-1.731-.371-2.285-.475l-.867-.165.856.216c.547.14,1.328.331,2.245.612a13.545,13.545,0,0,1,2.987,1.274,5.415,5.415,0,0,1,1.346,1.152,4.776,4.776,0,0,1,.813,1.608,3.54,3.54,0,0,1,.166,1.727,2.432,2.432,0,0,1-.245.691l-1.432,1.429c-.561.378-1.159.7-1.684,1.04a8.262,8.262,0,0,0-1.454,1.108l-.209-.122c-.518-.979-1.457-2.789-2.289-4.674a35.69,35.69,0,0,1-1.479-3.883c-.335-1.087-.482-1.835-.482-1.835s.058.756.263,1.886a37.022,37.022,0,0,0,1.018,4.088c.684,2.22,1.508,4.379,1.868,5.3-.191.27-.392.54-.6.8a9.7,9.7,0,0,1-1.457,1.425,85.077,85.077,0,0,1-4.243-15.243,84.345,84.345,0,0,0,1.357,8.41c-.04,3.087-.327,9.154-1.954,10.022a13.571,13.571,0,0,1-1.349.594l-1.932-19.669-25.2,15.11c-1.044-1.047-1.634-1.785-1.634-1.785l-1.792,5.081a18.319,18.319,0,0,1-3.9-5.585l-.011-.032,3.872-3.1,1.835,3.638a14.78,14.78,0,0,1,3.911-16.326c7.866-7.513,21.378-16.747,21.378-16.747l-18.28,10.4s-5.3,2.843-7.866,7.513a17.619,17.619,0,0,0-2.112,9.277l.662,1.313-.266-.335-3.656,2.933a16.645,16.645,0,0,1-.723-6.959,17.634,17.634,0,0,1,2.648-7.2,29.592,29.592,0,0,1,4.221-5.264,40.312,40.312,0,0,1,3.969-3.49c1.047-.813,1.918-1.411,2.558-1.835,5.059-.777,11.177-5.725,14.66-7.665q14.2-7.9,28.19-16.168,16.15-9.532,32.022-19.529c5.682-1.576,14.113-3.544,20.515-3.429a56.8,56.8,0,0,0,14.692-2.184L190.1,406.235l-39.165,21.331a89.1,89.1,0,0,1,12.616-3.544,10.628,10.628,0,0,0-4.084,2.71,5.706,5.706,0,0,0-1.745,4.8,12.428,12.428,0,0,0-.525,3.228,12.959,12.959,0,0,0,.99,5.246l.014.1c.014.1.058.194.079.3a3.74,3.74,0,0,1-.45-1.313l-3.757,1.965-2.105-2.35c-.086-.227-.169-.45-.263-.68l-.025-.058-.032-.047-.345-.479-.288-.4-.417.223A313.409,313.409,0,0,0,118.122,457.3a311.862,311.862,0,0,1,32.551-18.82l.014.022c.309.82.594,1.706.874,2.573l.853,2.666.6,1.9-4.243,1.893c-.058-.108-.119-.209-.173-.317a20.936,20.936,0,0,1-1.133-2.742l-.011-.032-.309-.759-.266-.655-.551.4a123.5,123.5,0,0,1-18.2,10.871c.763-.324,1.508-.68,2.263-1.018l-2.544,1.3,3.336,1.95-.212.126,14.106-6.808-.011.061a23.3,23.3,0,0,1,4.584,1.1c0,.191,0,.392.011.6a13.486,13.486,0,0,0,.644,3.627,14.058,14.058,0,0,0,1.547,3.267c.32.5.587.856.759,1.076Zm6.081-19.68-.381-.871a12.65,12.65,0,0,1-.392-7.449,5.727,5.727,0,0,0,.173.73,6.5,6.5,0,0,0,.91,1.76c-.014,1.022.065,5.214,2.278,8.363a13.09,13.09,0,0,0,2.652,2.987,13.023,13.023,0,0,1-2.4-1.364,6.9,6.9,0,0,1-2.659-3.541l.072-.032Zm8.507-2.49c-3.638-.748-6.959-3.131-7.729-5.542a4.178,4.178,0,0,1,1.231-4.275c3.454-3.735,9.478-3.75,13.915-2.105a8.539,8.539,0,0,1,2.436,1.4,6.533,6.533,0,0,1,2.569,4.649c.076,2.674-2.058,4.736-4.2,5.588a14.465,14.465,0,0,1-8.219.284m8.751,1.062a8.1,8.1,0,0,0,4.815-4.908,13.259,13.259,0,0,1,.148,1.414,16.183,16.183,0,0,1-.036,2.54,15.478,15.478,0,0,1-.435,2.5c-.108.41-.255.806-.378,1.209-.173.381-.32.777-.511,1.151a9.222,9.222,0,0,1-1.418,2.051,5.313,5.313,0,0,1-.907.846,6.278,6.278,0,0,1-1.011.676,7.05,7.05,0,0,1-1.177.525,7.343,7.343,0,0,1-1.195.338,12.474,12.474,0,0,1-2.537.234c-.547-.007-1.09-.086-1.634-.148l.918-7.618a13.187,13.187,0,0,0,5.358-.813m-28.219,9.446-1.558.569c-.223-.036-.446-.083-.669-.115l-.158-.3-1.983,1.18-3.879-.529q3.579-1.959,7.031-4.149l.043.119a21.3,21.3,0,0,0,1.044,2.951c.04.09.09.18.13.27m9.687,12.35-.022-.18a6.966,6.966,0,0,1-2.756-.3,13.361,13.361,0,0,0-1.533-.324l-.277-.04c-.126-.22-.338-.565-.558-1.036l5.056,1.151s0-.137,0-.349c.054.338.119.691.2,1.076Zm5.408,28.05-.54-.169-.223-.086a7.762,7.762,0,0,1-2.047-1.975c-1.036-1.591-.439-4.322-.166-5.322a16.444,16.444,0,0,0,4.077,1.173l-.623,6.5a4.7,4.7,0,0,1-.479-.122m13.044-13.21a8.8,8.8,0,0,1,.324,1.468,10.247,10.247,0,0,1,.191,1.641,9.01,9.01,0,0,1-.029,1.785,9.865,9.865,0,0,1-.324,1.868,10.089,10.089,0,0,1-1.77,3.591,8.944,8.944,0,0,1-3.289,2.616,10.106,10.106,0,0,1-4.282.856c-.076,0-.151-.011-.227-.011.086-1.547.266-5.077.349-6.733a11.979,11.979,0,0,0,4.066-.673,7.92,7.92,0,0,0,3.555-2.584,5.866,5.866,0,0,0,1.267-3.969,5.95,5.95,0,0,0-.14-.878c.108.32.22.651.309,1.022m-6.787.691a16.1,16.1,0,0,0,.04-5.236c-.076-.68-.187-1.346-.3-2.011a11.773,11.773,0,0,1,1.123.4,8.482,8.482,0,0,1,3.757,3.113,5.452,5.452,0,0,1,.939,2.983,5.083,5.083,0,0,1-1.213,3.095,6.9,6.9,0,0,1-3.03,2.062,10.794,10.794,0,0,1-3.893.547,16.586,16.586,0,0,1-7.621-1.925l-.068-.043,6.9-1.054a1.815,1.815,0,0,0,1.673.266,2.775,2.775,0,0,0,1.691-2.2m-1.81-16.938c-.014.162-.018.338-.029.507-.2,3.451-.756,11.515-1.716,11.81-1.223.371-1.7-.169-1.7-.169l-5.246-7.481c-.288-.835-.543-1.634-.734-2.361l-.2-.9c-.137-.59-.273-1.141-.353-1.619a11.533,11.533,0,0,0-.241-1.9c-.029-.328-.036-.525-.036-.525s0,.166.018.414c-.237-1.256.453-5.678.453-5.678l-1.637,3.858a7.973,7.973,0,0,1-2.422.155,4.5,4.5,0,0,1-2.429-1.594,11.673,11.673,0,0,1,.043-1.846c0-.061.011-.1.018-.158.072.029.148.054.219.086l.234-.554c3.487-.853,7.139-3.875,9.511-6.6l-.486-.421.032-.036c.22.2.435.41.669.59a15.454,15.454,0,0,0,4.779,2.4,20.983,20.983,0,0,0,4.462.907l-.572.1-.13.7-.594-.155-.554,2.307c-.331,1.472-.81,3.588-1.151,6.175-.054.417-.094.864-.14,1.3l-.018-.363s-.018.41-.054,1.054m19.87-17.211c-10.846,8.363-18.1,13.951-18.212,14.037.029-.155.058-.324.086-.471l18.715-14.023c-.194.151-.4.309-.59.457m38.553-57.506a1.58,1.58,0,0,0-.864.112c-3.893,1.7-7.589,3.188-11.918,3.174-2.3-.007-10.061-.3-9.755-3.847.094-1.08.705-2.065.8-3.145a6.474,6.474,0,0,0-.954-3.329c-1.684-3.339-4.743-5.822-6.844-8.989a98.994,98.994,0,0,1-6.182-10.335c-1.623-3.231-8.69-13.634-7.344-16.977a.8.8,0,0,0-.291-.954,1.827,1.827,0,0,0-.194-.263c-1.238-1.342-2.443-2.735-3.764-4a18.308,18.308,0,0,0-2.519-1.958c-10.4-12.872-20.712-25.747-30.41-39.176-5.419-7.5-10.612-15.164-15.826-22.81-2.605-3.825-5.214-7.647-7.863-11.439-2.069-2.969-4.509-5.534-3.807-9.453.572-3.2,1.648-5.707,1.5-9.054-.151-3.44-.641-6.873-.9-10.309-.115-1.508-2.335-35.225-.072-35.523a.228.228,0,0,0,.079-.435l-.047-.022c.011-.1.014-.2.025-.3a1.4,1.4,0,0,0,.338-1.637c-1.767-3.782-3.688-7.485-5.592-11.195-2.1-4.095-4.358-6.445-3.487-11.3.331-1.835,1.94-9.637,3.393-10.569,4.023-2.576,7.794-6.477,11.965-8.586,2.332-1.18,9.234-2.469,11.716-1.245,7.589,3.742,15.031,8.021,21.205,13.832a2.178,2.178,0,0,0,.209.162c.345,2.166.446,4.314.763,6.484,1.349,9.226-1.839,19.59-7.272,27.006a2.064,2.064,0,0,0-.27.5,21.638,21.638,0,0,1-3.839,1.213,17.525,17.525,0,0,1-4.379.835c-.216,0-.212.335-.011.367a23.944,23.944,0,0,0,4.606.666,18.492,18.492,0,0,0,4.25-.8,2.757,2.757,0,0,0,.277.22c.025,3.17.011,6.319-.079,9.449-1.072,11.839-2.335,23.584-5.707,35.135-.04-.043-.072-.09-.112-.133a.238.238,0,0,0-.389.273c9.4,15.808,19.126,31.346,27.8,47.578,1.259,2.361,2.483,4.739,3.724,7.107l-.04.05.1.076c3.674,7.024,7.3,14.077,10.946,21.119,4.444,8.582,8.463,18.208,14.214,26a6.7,6.7,0,0,0-.835-3.717c-.946-1.684,3.728-.237,3.821-.212,2.569.756,5.063,1.9,7.6,2.756q2.073,2.148,4.1,4.34a39.352,39.352,0,0,0,8.514,10.892,79.331,79.331,0,0,1-17.506,15.7.222.222,0,0,0,.2.389A49.163,49.163,0,0,0,227.6,363.72c.561,6.2,1.04,14.005-1.27,19.169a7.768,7.768,0,0,1-.8,1.375m28.64.065-.14-.867c.036.133.061.263.1.4l.115.421.1-.061Zm29.608-20.335-.194-.23-.04.032-2.04-3.71a11.413,11.413,0,0,0-3.242-.191c-1.684.166-6.617,1.231-6.106,1.788a1.919,1.919,0,0,1,.432,1.288,4.966,4.966,0,0,0-.547-1.054,3.423,3.423,0,0,0-1.447-1.119,8.92,8.92,0,0,0-3.037-.6c-.9-.047-1.641-.032-2.159-.029l-.82.011.817.047c.522.032,1.263.072,2.145.18a8.858,8.858,0,0,1,2.868.774,2.933,2.933,0,0,1,1.173,1.04,4.3,4.3,0,0,1,.554,1.544,2.591,2.591,0,0,1,.007.763c-.025.144-.054.281-.086.407l-.09.018.032.144c-.025.068-.047.147-.076.205a4.43,4.43,0,0,1-.9,1.245c-.748.734-1.6,1.324-2.307,1.925a8.8,8.8,0,0,0-1.306,1.324c-.435-1.036-1.033-2.519-1.558-4.048a33.923,33.923,0,0,1-1.1-3.872c-.23-1.076-.309-1.81-.309-1.81s-.011.738.086,1.846a34.513,34.513,0,0,0,.626,4.027c.468,2.209,1.087,4.365,1.357,5.279-.216.273-.435.547-.673.806a10.841,10.841,0,0,1-1.511,1.382,81.938,81.938,0,0,1-2.8-15.1A82.641,82.641,0,0,0,262.8,371.23l-.533-1.277-5.57,2.753a71.744,71.744,0,0,1-2.594-15.027s.144,11.871.874,15.876,1.691,5.1,1.691,5.1l-1.763,4.419c-.086.054-.173.112-.259.169a84.347,84.347,0,0,1-3.257-26.923,84.139,84.139,0,0,0,0,10.86l-.227-1.4L231.551,378.74s-1.1-4.307-1.954-7.791l0-.014a100.145,100.145,0,0,0-.173-10.7.969.969,0,0,0-1.1-.921,1.863,1.863,0,0,0,.536-.979c15.2-8.985,29.723-19.154,44.66-28.622,3.336-2,7.1-4.275,10.849-6.61,4.171-2.6,8.28-5.279,11.742-7.654,2.015-1.184,4.217-2.584,6.6-4.023L307,308.8c.731-.446,1.468-.9,2.206-1.353a7.614,7.614,0,0,1,2.123-1.065,1.36,1.36,0,0,1,.806,0c.151.065.234.2.313.482a9.071,9.071,0,0,1-.043,2.292c-.148,1.684-.356,3.339-.594,4.937-.482,3.2-1.108,6.15-1.72,8.654s-1.227,4.57-1.68,5.991c-.234.709-.421,1.27-.547,1.648s-.205.594-.205.594l1.666.525a12.6,12.6,0,0,0-10.766,1.616,6.325,6.325,0,0,0-2.753,3.955c-2.731,2.494-5.858,4.181-8.974,6.178l-1.972-7.866-.155-.619-.551.313a338.1,338.1,0,0,0-32.44,21.011,337.549,337.549,0,0,1,32.343-19.845l3.814,17.046a11.087,11.087,0,0,1-2.961.651l.018-.036c-.511-.237-1.033-.45-1.558-.648-.2-.353-.378-.687-.558-1.054-.205-.425-.4-.856-.576-1.3a19.1,19.1,0,0,1-.853-2.71l-.007-.036-.237-.756-.227-.73-.6.417a132.073,132.073,0,0,1-18.575,10.619,131.7,131.7,0,0,0,18.521-9.313l.011.043a21.02,21.02,0,0,0,.756,2.915c.151.443.324.882.5,1.317a22.089,22.089,0,0,0-2.605-.561l-.158-.3-14.473,8.266,14.332-6.607-.007.054a20.827,20.827,0,0,1,4.725,1.285c-.065.23-.133.486-.191.774a14.211,14.211,0,0,0-.3,3.627,13.8,13.8,0,0,0,.641,3.516c.108.331.209.594.3.824.022.151.043.284.065.417Zm11.5-25.545q.194-.5.41-1.015l.1-.237c-.018.119-.043.237-.054.353-.166.292-.309.6-.453.9M289.14,374.08q-.432-2.159-.641-4.066a31.9,31.9,0,0,1-.18-4.253l.291-3.379c.079-.529.144-.846.144-.846s-.05.209-.122.594l.014-.2-5.092-1.709a2.709,2.709,0,0,0-.029.327c0-.435,0-.882.043-1.328a13.19,13.19,0,0,1,.752-3.3c.072-.2.137-.36.2-.511,3.584-.036,8-2.44,11.026-4.768l-.547-.709.05-.036a7.916,7.916,0,0,0,.68.957,12.5,12.5,0,0,0,2.206,2.044c-.1.277-3.487,9.6-4.4,17.384-.763,6.542-.569,12.159-.22,13.591a1.312,1.312,0,0,1-.443.09l-.133.014c.007,0-.1,0,0,.014l-.076-.022-.3-.09a2.629,2.629,0,0,1-.716-.752,15.824,15.824,0,0,1-1.623-4.53c-.367-1.551-.626-3.066-.885-4.516m1.015,6.959a10.707,10.707,0,0,0,1,2.4,2.708,2.708,0,0,0,1.029,1.029l.3.1.076.022a.372.372,0,0,0,.151.014l.187-.011a1.594,1.594,0,0,0,.723-.14,3.777,3.777,0,0,0,1.817-2.065,20.035,20.035,0,0,0,1.2-5.041c.079-.576.137-1.144.191-1.709a10.423,10.423,0,0,1,.993.608,7.353,7.353,0,0,1,2.767,3.825,5.128,5.128,0,0,1,.032,3.019A5.679,5.679,0,0,1,298.7,385.8a7.323,7.323,0,0,1-3.3,1.45,10.066,10.066,0,0,1-3.818-.13,14.381,14.381,0,0,1-6.837-3.329l-.011-.011a2.766,2.766,0,0,1,.205-2.479c.705-1.1,4.642-1.94,5.21-.263m4.775.551c-.054.173-.09.353-.155.522-.043.1-.1.2-.147.306.1-.237.2-.515.3-.828m2.882,11.346a9.106,9.106,0,0,1-3.642,2.019,8.9,8.9,0,0,1-4.268.2,4.523,4.523,0,0,1-1.047-.237c-.148-.047-.3-.094-.443-.133a17.214,17.214,0,0,1-1.806-1.752c-1.709-1.907-.774-4.512,2.1-3.875a19.792,19.792,0,0,1-2.965-1.475c-.241-.155-.475-.324-.7-.5a5.59,5.59,0,0,1-2.1-3.66,7.215,7.215,0,0,0,.9,1.166,12.151,12.151,0,0,0,3.4,2.447,18.243,18.243,0,0,0,4.045,1.407,11.45,11.45,0,0,0,4.358.086,8.235,8.235,0,0,0,3.865-1.846,6.391,6.391,0,0,0,2.123-3.415A5.506,5.506,0,0,0,301.77,382a12.953,12.953,0,0,1,.043,1.328,7.721,7.721,0,0,1-.076,1.475,9.722,9.722,0,0,1-.234,1.616,8.919,8.919,0,0,1-.471,1.695,10.512,10.512,0,0,1-.752,1.713,11.182,11.182,0,0,1-2.469,3.113" transform="translate(4.462 4.692)" fill="#490130"/>
    <path id="Path_53782" data-name="Path 53782" d="M61.763,125.2a4.706,4.706,0,0,0-1-2.343,6.927,6.927,0,0,0-1.421-1.335,6.742,6.742,0,0,0-1.09-.615l-.41-.166s.14.058.407.173a6.668,6.668,0,0,1,1.072.641,5.684,5.684,0,0,1,1.349,1.371,4.077,4.077,0,0,1,.777,2.3,3.637,3.637,0,0,1-1.076,2.512l-.072.061a12.25,12.25,0,0,1-6.538-1.047c-3.857-1.637-1.133-6.445-1.133-6.445-.205,0-.381.018-.569.025a11.648,11.648,0,0,1,4.142-.018,9.6,9.6,0,0,1,1.216.3c.277.083.425.13.425.13s-.148-.05-.421-.14a10.5,10.5,0,0,0-1.213-.32,15.563,15.563,0,0,0-4.473-.22,8.446,8.446,0,0,0-2.965.756,4.207,4.207,0,0,0-2.379,2.674,4.651,4.651,0,0,0,.792,3.872,7.553,7.553,0,0,0,3.253,2.314,13.277,13.277,0,0,0,3.768.835,9.535,9.535,0,0,0,3.739-.371,5.9,5.9,0,0,0,2.922-1.976,4.126,4.126,0,0,0,.9-2.965" transform="translate(120.204 311.775)" fill="#490130"/>
    <path id="Path_53783" data-name="Path 53783" d="M7.732,72.9,24.018,91.629l5.588-7.352-3.85,12.335L52.345,114.7l-5.977,1.166S29.319,105.3,18.451,94.36s-13.8-17.287-13.8-17.287Z" transform="translate(12.077 189.432)" fill="#663550"/>
    <path id="Path_53784" data-name="Path 53784" d="M56.159,43.526S43.317,47.355,36.8,52.864,26.321,64.044,26.66,66.894s9.978,9.111,9.978,9.111L51.69,82.09,42.611,66.862l3.652-13.149Z" transform="translate(69.22 113.098)" fill="#663550"/>
    <path id="Path_53785" data-name="Path 53785" d="M66.728,60.554s-8.46,6.43-9.543,9.111a12.88,12.88,0,0,1-2.256,3.886l10.385,30.137L74.184,81.9s-5.61-24.523-7.456-21.342" transform="translate(142.728 156.603)" fill="#663550"/>
    <path id="Path_53786" data-name="Path 53786" d="M27.82,15.253l-5.326.216s3.991,9.406,5.646,12.256a42.119,42.119,0,0,1,2.746,5.851s5.063,1.047,12.454,2.976a68.718,68.718,0,0,0,14.48,2.026S47.762,27.3,40.281,23.907s-11.72-5.862-12.461-8.654" transform="translate(58.449 39.634)" fill="#663550"/>
    <path id="Path_53787" data-name="Path 53787" d="M72.942,28.7S56.511,22,51.689,22.979s-6.34,7.661-6.34,7.661L67.306,42.846S73.352,57.3,80.218,61.755s11.6,7.683,11.6,7.683S71.049,53.123,72.942,28.7" transform="translate(117.835 59.453)" fill="#663550"/>
    <path id="Path_53788" data-name="Path 53788" d="M69.879,25.623l-14.07-3.444s9.133,6.247,14.71,13.739,14.376,24.89,14.376,24.89c6.693,7.193,16.729,7.823,16.729,7.823s3.591-28.165-31.745-43.008" transform="translate(145.015 57.63)" fill="#663550"/>
  </g>
</svg>
