<?xml version="1.0" encoding="UTF-8"?><svg xmlns="http://www.w3.org/2000/svg" viewBox="0 0 90.09 115.73"><defs><style>.d{font-size:17.06px;}.d,.e,.f{fill:#e6b64a;}.d,.f{font-family:Impact, Impact;}.f{font-size:43.54px;}</style></defs><g id="a"/><g id="b"><g id="c"><g><g><g><path class="e" d="M42.91,90.35l-3.32-2.33-3.8,1.43c-.42,.16-.86,.24-1.31,.24-1.09,0-2.12-.47-2.83-1.3l-2.64-3.08-4.04,.44c-1.53,.17-3.06-.67-3.74-2.06l-1.76-3.58c-1.86,9.6-4.06,19.14-6.62,28.59,4.94-1.1,9.89-2.27,14.83-3.53,3.76,3.45,7.47,6.98,11.14,10.58,2.22-8.19,4.19-16.43,5.91-24.73-.66-.05-1.28-.27-1.83-.65Z"/><path class="e" d="M68.86,83.68c-.68,1.39-2.19,2.23-3.75,2.06l-4.03-.44-2.64,3.08c-.71,.83-1.74,1.3-2.83,1.3-.45,0-.89-.08-1.31-.24l-3.8-1.43-3.32,2.33c-.58,.4-1.25,.62-1.95,.66,1.72,8.3,3.69,16.54,5.91,24.72,3.67-3.6,7.39-7.12,11.14-10.58,4.94,1.26,9.89,2.44,14.83,3.53-2.55-9.39-4.74-18.87-6.59-28.41l-1.67,3.41Z"/><path class="e" d="M87.29,42.14l1.9-4.23c.45-1.01,.23-2.19-.56-2.96l-3.33-3.23,.79-4.57c.19-1.09-.32-2.18-1.28-2.73l-4.03-2.3-.37-4.62c-.09-1.1-.86-2.03-1.92-2.32l-4.47-1.23-1.51-4.39c-.36-1.05-1.33-1.75-2.44-1.77l-4.64-.08-2.55-3.87c-.49-.75-1.32-1.18-2.19-1.18-.2,0-.41,.02-.61,.07l-4.51,1.08-3.43-3.12c-.49-.45-1.13-.68-1.77-.68-.42,0-.84,.1-1.23,.3l-4.1,2.17L40.95,.3c-.39-.2-.81-.3-1.23-.3-.64,0-1.27,.23-1.77,.68l-3.43,3.12-4.51-1.08c-.2-.05-.41-.07-.61-.07-.87,0-1.7,.43-2.19,1.18l-2.55,3.87-4.64,.08c-1.1,.02-2.08,.73-2.44,1.77l-1.51,4.39-4.47,1.23c-1.07,.29-1.83,1.22-1.92,2.32l-.37,4.62-4.03,2.3c-.96,.55-1.47,1.64-1.28,2.73l.79,4.57-3.33,3.23c-.79,.77-1.02,1.95-.57,2.96l1.9,4.23-2.42,3.96c-.58,.94-.5,2.15,.19,3.01l2.9,3.62-1.36,4.43c-.32,1.06,.05,2.2,.93,2.87l3.71,2.79-.21,4.63c-.05,1.1,.59,2.12,1.62,2.55l4.28,1.78,.95,4.54c.23,1.08,1.1,1.91,2.2,2.06l4.59,.66,2.04,4.16c.44,.91,1.36,1.47,2.36,1.47,.09,0,.19,0,.29-.02l4.61-.5,3.02,3.52c.51,.59,1.24,.92,2,.92,.31,0,.62-.05,.92-.17l4.34-1.63,3.8,2.66c.45,.32,.98,.48,1.51,.48s1.06-.16,1.51-.48l3.8-2.66,4.34,1.63c.3,.11,.61,.17,.92,.17,.75,0,1.49-.32,2-.92l3.02-3.52,4.61,.5c.1,.01,.19,.02,.29,.02,.99,0,1.91-.56,2.36-1.47l2.04-4.16,4.59-.66c1.09-.16,1.97-.98,2.2-2.06l.95-4.54,4.28-1.78c1.02-.42,1.67-1.44,1.62-2.55l-.21-4.63,3.71-2.79c.88-.66,1.26-1.81,.93-2.87l-1.36-4.43,2.9-3.62c.69-.86,.77-2.07,.19-3.01l-2.42-3.96Zm-42.24,41c-21.05,0-38.17-17.13-38.17-38.17S24,6.79,45.05,6.79s38.17,17.13,38.17,38.17-17.13,38.17-38.17,38.17Z"/><path class="e" d="M45.05,74.01c16.02,0,29.05-13.03,29.05-29.05s-13.03-29.05-29.05-29.05S15.99,28.94,15.99,44.96s13.03,29.05,29.05,29.05Zm26.95-29.05c0,14.86-12.09,26.95-26.95,26.95s-26.95-12.09-26.95-26.95,12.09-26.95,26.95-26.95,26.95,12.09,26.95,26.95Z"/><path class="e" d="M50.1,20.32c1.58,.35,3.47,.95,5.49,1.93,2.02,.98,4.15,2.39,6.18,4.25,2.01,1.88,3.89,4.25,5.3,7.05,1.42,2.8,2.35,6.03,2.6,9.44,.25,3.4-.21,6.97-1.43,10.33-1.21,3.36-3.22,6.49-5.78,9.06-2.57,2.56-5.7,4.57-9.06,5.78-3.37,1.21-6.92,1.68-10.34,1.42-3.39-.25-6.63-1.18-9.43-2.6-2.81-1.41-5.18-3.29-7.05-5.3-1.86-2.03-3.26-4.16-4.25-6.18-.98-2.02-1.58-3.91-1.93-5.49-.35-1.58-.48-2.86-.56-3.72-.05-.87-.07-1.34-.07-1.34,0,0,0,.47,0,1.34,.04,.87,.09,2.16,.39,3.77,.29,1.61,.83,3.54,1.75,5.64,.92,2.1,2.27,4.34,4.14,6.46,1.88,2.11,4.28,4.11,7.16,5.64,2.87,1.54,6.21,2.6,9.78,2.89,3.54,.3,7.3-.11,10.83-1.39,3.54-1.26,6.83-3.35,9.54-6.04,2.68-2.71,4.78-6,6.04-9.54,1.27-3.54,1.69-7.29,1.39-10.84-.29-3.56-1.36-6.91-2.89-9.78-1.53-2.88-3.53-5.28-5.64-7.16-2.12-1.88-4.37-3.23-6.46-4.14-2.1-.92-4.03-1.45-5.64-1.75-1.61-.3-2.9-.35-3.77-.39-.87,0-1.34,0-1.34,0,0,0,.46,.02,1.34,.07,.87,.08,2.14,.21,3.72,.56Z"/><path class="e" d="M82.13,42c-.4-5.13-1.92-9.96-4.12-14.1-2.2-4.16-5.06-7.63-8.11-10.35-3.06-2.72-6.29-4.69-9.31-6.03-3.03-1.35-5.82-2.14-8.14-2.57-2.33-.45-4.19-.53-5.46-.6l-1.94-.02s.67,.03,1.94,.09c1.26,.11,3.11,.28,5.41,.78,2.3,.5,5.04,1.35,7.99,2.76,2.95,1.41,6.06,3.44,9.03,6.13,2.94,2.72,5.68,6.16,7.75,10.25,2.08,4.08,3.45,8.79,3.84,13.75,.38,4.96-.26,10.18-2.05,15.09-1.78,4.91-4.71,9.48-8.46,13.23-3.75,3.75-8.32,6.68-13.23,8.46-4.92,1.78-10.12,2.43-15.1,2.05-4.95-.38-9.67-1.76-13.75-3.84-4.09-2.07-7.53-4.82-10.25-7.75-2.7-2.96-4.72-6.08-6.13-9.02-1.41-2.95-2.27-5.69-2.76-7.99-.5-2.3-.67-4.15-.78-5.41-.06-1.26-.09-1.94-.09-1.94,0,0,0,.67,.02,1.94,.07,1.26,.15,3.13,.6,5.46,.44,2.33,1.22,5.12,2.57,8.14,1.34,3.02,3.31,6.25,6.03,9.31,2.73,3.04,6.2,5.91,10.35,8.11,4.15,2.2,8.97,3.72,14.11,4.12,5.1,.42,10.5-.21,15.59-2.03,5.09-1.81,9.84-4.82,13.74-8.68,3.86-3.9,6.87-8.65,8.68-13.74,1.82-5.09,2.45-10.48,2.03-15.6Z"/></g><text class="f" transform="translate(35.14 61.78)"><tspan x="0" y="0">1</tspan></text></g><text class="d" transform="translate(51.74 32.54) scale(.58)"><tspan x="0" y="0">st</tspan></text></g></g></g></svg>