<svg xmlns="http://www.w3.org/2000/svg" width="196.007" height="130.988" viewBox="0 0 196.007 130.988">
  <g id="b" transform="translate(0.001)">
    <g id="c" transform="translate(-0.001)">
      <g id="d">
        <g id="e">
          <path id="Path_113" data-name="Path 113" d="M58.362,0c1,.749.64,1.524.051,2.315C53.391,9.1,48.438,15.936,43.663,22.9a111.722,111.722,0,0,0-9.1,14.747A12.4,12.4,0,0,0,33.35,41.9a4.3,4.3,0,0,0,1.956,4.216C41.222,50.884,48.212,53.8,54.5,57.889c.694.453,1.274.673,1.965.012,3.45-3.281,7.449-5.879,11.095-8.919,1.087-.905,2.27-1.69,3.359-2.593a1.95,1.95,0,0,1,2.774-.036c2.87,2.39,6.091,4.37,8.578,7.213A1.848,1.848,0,0,0,85,53.817c2.475-1.69,4.92-3.432,7.364-5.167a3.821,3.821,0,0,0,.863-.83C97.7,41.669,104.67,38.506,110.2,33.626c1.183-1.044,2.221-.537,3.239.522q8.72,9.086,17.527,18.088c2.028,2.067,4.2,4,6.32,5.976a2.343,2.343,0,0,0,3.3.281c5.895-3.595,11.928-6.963,17.883-10.458,1.391-.818,2.415-2.122,3.755-3.057,1.041-.727.767-2.206.546-3.392a26.536,26.536,0,0,0-4-9,58.833,58.833,0,0,0-4.986-7.443c-.027-.9-.812-1.331-1.25-1.959-2.919-4.174-5.9-8.3-8.861-12.447-1.8-2.952-3.981-5.629-5.988-8.43-.4-.564-.981-1.216-.386-1.811.661-.661,1.334-.094,1.907.413a169.713,169.713,0,0,1,31.9,37.809,1.738,1.738,0,0,0,1.95.984c2.031-.474,3.121.745,4.084,2.116,1.416,2.022,5.007,6.562,2.665,9.042a2.06,2.06,0,0,0-.278,2.614c6.93,12.474,11.78,26.406,15.031,40.226.519,2.212.933,4.452,1.343,6.685.106.579.32,1.382-.552,1.566s-1.141-.586-1.409-1.2c-3.5-8.04-6.752-16.048-10.334-24.046-2.508-5.6-5.641-12.845-10.25-17.029-1.1-.993-2.321-2.212-3.824-1.829a21.944,21.944,0,0,0-4.2,1.548c-4.1,2.04-7.983,4.5-11.949,6.8-.269.229-1.1.127-.664.745.254.359.764,0,1-.407a.98.98,0,0,0,.471-.32s6.655-.19,10.1-.175c3.673.018,7.41-.266,8.72,2.224,1.237,2.357,1.313,6.5-1.228,7.506.625,9.145.6,17.735.688,24.559a21.974,21.974,0,0,0,.365,4.1c2.282,2.861,1.7,8.324-5.647,8.36-5.071.024-10.292-.027-15.363-.009-.45,0-1.153-.329-1.319.365s.613.682,1.011.918c3.8,2.258,7.594,4.53,11.424,6.734a1.6,1.6,0,0,1,.679,2.529c-1.322,2.1-2.191,4.452-3.676,6.465-.8,1.081-1.506,1.485-2.822.733-6.546-3.727-13.135-7.382-19.709-11.059-3.5-1.959-7.014-3.9-10.5-5.879a7,7,0,0,0-3.607-.827c-16.781.009-33.562.039-50.343-.027-2.632-.009-4.678,1.256-6.779,2.436-8.895,4.992-17.741,10.066-26.62,15.085-2.067,1.168-2.5,1.038-3.821-1.029-1.09-1.705-2.1-3.465-3.145-5.2a1.453,1.453,0,0,0-.519-1.165,2.293,2.293,0,0,1,.54-1.874,2.485,2.485,0,0,0,1.923-.5c2.985-2.267,6.3-4.023,9.447-6.039.61-.392,1.953-.513,1.648-1.425-.326-.975-1.461-.38-2.273-.29-5.421.613-11.6-.109-17.427.03-5.152.124-6.492-4.914-4.736-8.2a7.091,7.091,0,0,0,.887-3.54c-.024-7.733-.012-15.468-.012-23.2a2.8,2.8,0,0,0-.525-2.1c-1.977-2.17-1.585-4.726-.752-7.1.688-1.956,2.568-2.611,4.6-2.611q7.049,0,14.095-.009c.543,0,1.373.241,1.545-.335.205-.7-.682-.945-1.168-1.222Q35.588,62,31.244,59.673a36.879,36.879,0,0,0-4.814-1.814c-1.331-.486-2.7.86-3.773,1.892-2.792,2.689-4.455,6.127-6.193,9.5-5.306,10.3-9.71,21.025-14.415,31.6-.3.679-.579,1.331-1.425,1.053-.752-.247-.67-.942-.54-1.6A171.469,171.469,0,0,1,5.833,78.7,165.367,165.367,0,0,1,15.4,55.625c.284-.549.586-1.1.911-1.621a2.525,2.525,0,0,0-.214-3.368,2.652,2.652,0,0,1-.3-3.027,33.475,33.475,0,0,1,2.961-5.535c1.02-1.591,2.249-2.852,4.455-2.39.691.145,1.222-.148,1.726-.954A172.4,172.4,0,0,1,54.167,3.347c.293-.272.534-.592.8-.89,1.265-.634,2-1.992,3.392-2.451V0ZM48.474,11.8c-.887-.181-1.108.287-1.023,1.05a.947.947,0,0,0-1.132.936,2.967,2.967,0,0,0-.709.432c-7.038,7.914-13.727,16.093-19.159,25.226-.26.438-1.111.815-.057,1.431.878.513,1.123.142,1.554-.552A224.957,224.957,0,0,1,40.932,21.474c1.9-2.454,3.746-4.947,5.614-7.422a1.257,1.257,0,0,0,.866-1.231,1.11,1.11,0,0,0,1.023-1.038c.589-.217.9-.646,1.2-1.651-.721.685-1.521.758-1.159,1.672h0Zm101.01,2.061c0-1.213-.893-1.591-2.092-2.36a5.5,5.5,0,0,0,2.128,2.333c-.051.824.709,1.147,1.1,1.657,6.211,8.077,12.375,16.184,17.536,25,.338.579.794.921,1.536.386s.329-.875.018-1.388a166.144,166.144,0,0,0-19.347-25.335C150.151,13.92,149.879,13.657,149.484,13.866ZM72.716,55.378Q71.2,57.7,69.671,60.011a.962.962,0,0,0-.73.878,53.461,53.461,0,0,0-4.34,5.182l-.311-.323a13.224,13.224,0,0,1,1.307-2.7c.694-1.313,1.817-2.469,1.684-4.123.178-.344.383-.908.036-1-.444-.115-.812.341-.869.875a1.735,1.735,0,0,0-.911,1.2.959.959,0,0,0-.724.887,20.33,20.33,0,0,1-3.063,3.293c-2.955,2.046-4.189,5.125-5.478,8.219a.8.8,0,0,0-.546.915L55.688,74c-.106.537.124.767.658.709a3.252,3.252,0,0,0,1.678.178q11.214.014,22.425,0a3.36,3.36,0,0,0,1.681-.166H95.878a10.728,10.728,0,0,0,1.343.163q21.292.014,42.581.009c.229,0,.459.006.685-.015,1.364-.139,1.844-.93.945-1.917-3.03-3.326-5.5-7.192-9.314-9.77a19.871,19.871,0,0,1-5.469-5.439c-1.856-2.737-3.4-5.795-6.211-7.784a25.115,25.115,0,0,1-4.247-3.616c-.534-.592-.875-1.877-1.778-1.563-.782.272-.767,1.515-1.02,2.366-.785,2.611-1.171,5.454-2.487,7.763-1.509,2.65-4.289,4.355-6.7,6.383,1.15-3.924,4.029-7.358,3.1-11.759a.937.937,0,0,0-.933.465c-1.8,2.173-3.688,4.292-5.321,6.592-1.56,2.2-3.875,3.6-5.514,5.686-1.56,1.726-4.814,2.626-2.873,6.051.356.628-.29.936-.682.607-.936-.785-2.529-1.023-2.49-2.707.015-.7-.441-.688-.927-.637-1.793.19-2.931-.9-3.779-2.194-2.336-3.555-4.576-7.183-8.532-9.2-.764-.389-.927-1.911-1.95-1.361-.691.371-1,1.455-1.47,2.224a1.771,1.771,0,0,0-.118.314v-.006Zm-36.405-6c-1.31.238-1.518,1.545-2.149,2.405-.486.661.368.848.736,1.059,5,2.864,10.057,5.638,15.025,8.563,2.294,1.349,1.9,1.473,3.975-.691.7-.733.595-1-.163-1.437q-7.28-4.17-14.545-8.372a14.908,14.908,0,0,0-2.876-1.527ZM140.994,60.113c.8.468,1.352.749,1.856,1.1,1.382.945,2.617.739,4.029-.109,4.455-2.677,8.985-5.228,13.482-7.832,1.953-1.132,1.907-1.111.616-3a1.344,1.344,0,0,0-2.137-.483c-.667.426-1.379.779-2.064,1.177-5.176,3-10.352,6-15.785,9.151h0Zm0,52.975c.175.241.124.583.525.749,2.412,1.011,4.461,2.656,6.785,3.851,3.863,1.989,7.561,4.3,11.354,6.429.417.232.893.933,1.5.308a2.332,2.332,0,0,0,.809-1.826c-.085-.9-.945-1.087-1.536-1.437-3.347-1.992-6.809-3.8-10.081-5.91-2.87-1.847-5.819-2.894-9.35-2.164Zm-85.049-.139c-3.616-.432-6.688-.335-9.317,1.868a12.652,12.652,0,0,1-1.907,1.111c-3.142,1.8-6.308,3.549-9.4,5.427-.652.4-1.8.712-1.02,2.17.887,1.669,1.745.872,2.689.338q5.179-2.934,10.334-5.91c2.774-1.6,5.538-3.211,8.623-5h0Zm120-65.8a17.876,17.876,0,0,0-3-4.947c-.522-.709-1.186-.64-1.944-.2-2.822,1.654-5.665,3.281-8.532,4.853a1.175,1.175,0,0,0-.432,1.962c.525.619.537,2.282,2.134,1.367,2.052-1.174,4.262-2.125,6.178-3.483,2-1.419,3.634-1.9,5.185.438.018.027.109,0,.413,0h0ZM20.1,46.6c.73.51,1.141.169,1.4-.3.709-1.277,1.572-1.138,2.668-.5,2.529,1.479,5.137,2.831,7.648,4.34,1.575.948,1.624-.552,2.161-1.213.616-.761.7-1.494-.341-2.073q-4.274-2.372-8.5-4.829c-.833-.489-1.485-.513-2.058.3-1,1.416-1.98,2.84-2.973,4.268h0ZM49.917,9.96c-.036-.048-.088-.136-.1-.13a1.045,1.045,0,0,0-.244.145c-.009.009.042.094.066.145Zm57.53,39.255.115-.106a.843.843,0,0,0-.211-.1c-.027-.006-.069.06-.106.094l.2.115h0Z" transform="translate(0.001)" fill="#df3311"/>
          <g id="Group_31" data-name="Group 31" transform="translate(46.088 89.036)">
            <path id="Path_114" data-name="Path 114" d="M152.7,306.025V295.86h2.07V304.3h5.146v1.726Z" transform="translate(-152.7 -295.6)" fill="#fff"/>
            <path id="Path_115" data-name="Path 115" d="M180.11,300.363a6.546,6.546,0,0,1,.468-2.629,4.87,4.87,0,0,1,.954-1.406,4.023,4.023,0,0,1,1.325-.924,5.613,5.613,0,0,1,2.209-.4,4.806,4.806,0,0,1,3.625,1.406,6.279,6.279,0,0,1,.012,7.793,4.767,4.767,0,0,1-3.607,1.4,4.843,4.843,0,0,1-3.634-1.394,5.292,5.292,0,0,1-1.349-3.842h0Zm2.134-.069a3.846,3.846,0,0,0,.8,2.638,2.763,2.763,0,0,0,4.072.009,3.92,3.92,0,0,0,.794-2.674,3.826,3.826,0,0,0-.773-2.629,2.861,2.861,0,0,0-4.114.012,3.873,3.873,0,0,0-.782,2.647h0Z" transform="translate(-171.837 -295)" fill="#fff"/>
            <path id="Path_116" data-name="Path 116" d="M222.352,301.665v-1.726h4.461v4.084a5.65,5.65,0,0,1-1.883,1.108,6.842,6.842,0,0,1-2.5.48,5.613,5.613,0,0,1-2.8-.676,4.276,4.276,0,0,1-1.8-1.929,6.23,6.23,0,0,1-.6-2.731,5.908,5.908,0,0,1,.67-2.846,4.5,4.5,0,0,1,1.965-1.908,5.3,5.3,0,0,1,2.454-.51,4.89,4.89,0,0,1,2.982.8,3.618,3.618,0,0,1,1.382,2.212l-2.055.383a2.177,2.177,0,0,0-.815-1.192,2.474,2.474,0,0,0-1.494-.438,2.805,2.805,0,0,0-2.158.86,3.623,3.623,0,0,0-.8,2.553,4.019,4.019,0,0,0,.812,2.738,2.7,2.7,0,0,0,2.125.911,3.518,3.518,0,0,0,1.3-.257,4.616,4.616,0,0,0,1.123-.619v-1.3h-2.372Z" transform="translate(-197.754 -295.007)" fill="#fff"/>
            <path id="Path_117" data-name="Path 117" d="M262.133,305.83h-2.252l-.9-2.327h-4.1l-.845,2.327H251.85l3.993-10.25h2.188l4.1,10.25Zm-3.809-4.056-1.413-3.8-1.385,3.8Z" transform="translate(-221.925 -295.405)" fill="#fff"/>
            <path id="Path_118" data-name="Path 118" d="M289.63,305.83V295.58h2.013l4.2,6.845V295.58h1.923v10.25h-2.077l-4.132-6.685v6.685Z" transform="translate(-248.302 -295.405)" fill="#fff"/>
            <path id="Path_119" data-name="Path 119" d="M322.473,303.53l1.959-.2a1.69,1.69,0,0,0,.495,1.053,1.343,1.343,0,0,0,.951.389,1.314,1.314,0,0,0,1.041-.5,2.276,2.276,0,0,0,.426-1.506,2.071,2.071,0,0,0-.423-1.416,1.409,1.409,0,0,0-1.1-.471,2.009,2.009,0,0,0-1.518.749l-1.594-.229,1.008-5.336h5.194V297.9H325.2l-.308,1.742a3,3,0,0,1,3.558.622,3.424,3.424,0,0,1,.908,2.469,3.7,3.7,0,0,1-.733,2.258,3.25,3.25,0,0,1-2.777,1.355,3.442,3.442,0,0,1-2.315-.764,3.126,3.126,0,0,1-1.068-2.049h0Z" transform="translate(-271.23 -295.74)" fill="#fff"/>
            <path id="Path_120" data-name="Path 120" d="M352.069,295.433A2.794,2.794,0,0,1,354.4,296.5a9.2,9.2,0,0,1-.009,8.354,2.792,2.792,0,0,1-2.321,1.047,2.937,2.937,0,0,1-2.411-1.15q-.915-1.15-.915-4.1a6.686,6.686,0,0,1,1.008-4.168,2.792,2.792,0,0,1,2.321-1.047h0Zm0,1.633a.985.985,0,0,0-.637.226,1.518,1.518,0,0,0-.435.815,16.7,16.7,0,0,0-.021,5.043,1.752,1.752,0,0,0,.459.9.969.969,0,0,0,.634.223.986.986,0,0,0,.637-.226,1.518,1.518,0,0,0,.435-.815,16.656,16.656,0,0,0,.021-5.037,1.763,1.763,0,0,0-.459-.9A.971.971,0,0,0,352.069,297.066Z" transform="translate(-289.571 -295.3)" fill="#fff"/>
            <path id="Path_121" data-name="Path 121" d="M376.5,305.83V295.58h3.1l1.859,6.993,1.838-6.993H386.4v10.25h-1.923v-8.068l-2.034,8.068h-1.992l-2.028-8.068v8.068Z" transform="translate(-308.953 -295.405)" fill="#fff"/>
            <path id="Path_122" data-name="Path 122" d="M415.9,305.83V295.58h2.07v10.25Z" transform="translate(-336.461 -295.405)" fill="#fff"/>
            <path id="Path_123" data-name="Path 123" d="M429.48,306.025V295.86h2.07V304.3H436.7v1.726Z" transform="translate(-345.943 -295.6)" fill="#fff"/>
            <path id="Path_124" data-name="Path 124" d="M458.27,305.83V295.58h7.6v1.735H460.34v2.273h5.146v1.726H460.34V304.1h5.725v1.726Z" transform="translate(-366.043 -295.405)" fill="#fff"/>
            <path id="Path_125" data-name="Path 125" d="M488.159,302.1l2.013-.2a2.461,2.461,0,0,0,.736,1.488,2.231,2.231,0,0,0,1.5.477,2.31,2.31,0,0,0,1.506-.423,1.258,1.258,0,0,0,.507-.99.935.935,0,0,0-.214-.619,1.714,1.714,0,0,0-.746-.444q-.362-.127-1.657-.447a5.62,5.62,0,0,1-2.336-1.014,2.674,2.674,0,0,1-.945-2.061,2.629,2.629,0,0,1,.444-1.464,2.788,2.788,0,0,1,1.28-1.038,5.115,5.115,0,0,1,2.016-.356,4.319,4.319,0,0,1,2.9.845,2.98,2.98,0,0,1,1.023,2.258l-2.07.091a1.736,1.736,0,0,0-.57-1.135,2.094,2.094,0,0,0-1.31-.347,2.4,2.4,0,0,0-1.413.371.747.747,0,0,0-.329.637.787.787,0,0,0,.308.622,5.4,5.4,0,0,0,1.9.685,10.146,10.146,0,0,1,2.233.736,2.861,2.861,0,0,1,1.132,1.041,3.056,3.056,0,0,1,.41,1.633,3.021,3.021,0,0,1-.489,1.651,2.935,2.935,0,0,1-1.385,1.144,5.788,5.788,0,0,1-2.23.374,4.432,4.432,0,0,1-2.985-.9,3.9,3.9,0,0,1-1.243-2.62h.009Z" transform="translate(-386.905 -295.007)" fill="#fff"/>
          </g>
        </g>
      </g>
    </g>
  </g>
</svg>
