<svg id="Group_51" data-name="Group 51" xmlns="http://www.w3.org/2000/svg" xmlns:xlink="http://www.w3.org/1999/xlink" width="141" height="141" viewBox="0 0 141 141">
  <defs>
    <clipPath id="clip-path">
      <rect id="Rectangle_53" data-name="Rectangle 53" width="141" height="141" fill="none"/>
    </clipPath>
    <clipPath id="clip-path-2">
      <path id="Path_141" data-name="Path 141" d="M129.683,169.532a39.849,39.849,0,1,0,39.849-39.849,39.849,39.849,0,0,0-39.849,39.849" transform="translate(-129.683 -129.683)" fill="none"/>
    </clipPath>
  </defs>
  <g id="Group_46" data-name="Group 46">
    <g id="Group_45" data-name="Group 45" clip-path="url(#clip-path)">
      <path id="Path_129" data-name="Path 129" d="M140.518,70.26A70.259,70.259,0,1,1,70.259,0,70.259,70.259,0,0,1,140.518,70.26" transform="translate(0 -0.001)" fill="#ce5533"/>
      <path id="Path_130" data-name="Path 130" d="M148.113,81.209a66.9,66.9,0,1,1-66.9-66.9,66.9,66.9,0,0,1,66.9,66.9" transform="translate(-10.95 -10.951)" fill="#faf6e3"/>
      <path id="Path_131" data-name="Path 131" d="M155.47,78.647a64.5,64.5,0,0,0-127.311,0Z" transform="translate(-21.556 -18.807)" fill="#f3b237"/>
      <path id="Path_132" data-name="Path 132" d="M28.159,345.938a64.5,64.5,0,0,0,127.311,0Z" transform="translate(-21.556 -264.817)" fill="#2f272b"/>
      <path id="Path_133" data-name="Path 133" d="M192.461,145.141A47.32,47.32,0,1,1,145.14,97.82a47.321,47.321,0,0,1,47.321,47.321" transform="translate(-74.882 -74.882)" fill="#faf6e3"/>
      <rect id="Rectangle_52" data-name="Rectangle 52" width="135.225" height="15.607" transform="translate(3.354 62.603)" fill="#ce5533"/>
      <path id="Path_134" data-name="Path 134" d="M197.781,152.811A44.971,44.971,0,1,1,152.81,107.84a44.971,44.971,0,0,1,44.971,44.971" transform="translate(-82.551 -82.552)" fill="#ce5533"/>
      <path id="Path_135" data-name="Path 135" d="M205.678,164.195a41.484,41.484,0,1,1-41.484-41.484,41.484,41.484,0,0,1,41.484,41.484" transform="translate(-93.936 -93.936)" fill="#fff4e3"/>
    </g>
  </g>
  <g id="Group_48" data-name="Group 48" transform="translate(30.41 30.41)">
    <g id="Group_47" data-name="Group 47" clip-path="url(#clip-path-2)">
      <path id="Path_136" data-name="Path 136" d="M207.659,246.47a37.2,37.2,0,0,1-12.239,30.035c-2.907,2.826-2.284,2.482-7.089,5.467a34.922,34.922,0,0,1-14.811,5.746c-22.983,3.088-40.691-10.412-45.549-28.577a42.183,42.183,0,0,1-.13-21.872,1.029,1.029,0,0,1,1.193.263c.623,1.133.549,2.471,1.07,3.634a7.9,7.9,0,0,0,1.967,2.846c.239.294.438.363.616-.082.256-.641.431-1.555,1.226-1.533.956.026,1.078,1.054,1.378,1.778.153.37.2.778.35,1.152.144.183.221.114.32-.175.349-1.015.347-2.649,1.538-2.674,1.462-.031,1.36,1.708,1.736,2.781a13.1,13.1,0,0,1,.588,2.457c.624-1.686.665-3.436,1.49-4.947.707-.767,1.366-1.635,2.619-1.293,1.811,2.832,1.861,6.257,3.265,9.374.649-.073.763-1.739,1.5-1.112,1.841,1.559,1.7,3.931,2.111,6.161.966-2.035,1.878-1.834,2.631.158.392,1.037.555,2.147,1,3.168.581,1.327,1.4,1.982,2.793.973a53.24,53.24,0,0,1,5.361-2.056c3.768-1.279,4.955-4.851,7.3-7.379.745-.8-.067-1.988.366-2.938.862-1.451,1.68-.5,2.409.105a18.548,18.548,0,0,1,2.094,2.537c.383.469.609,1.126,1.083,1.445,1.587,1.072,1.694,4.471,4.616,3.326,2.872-1.125,5.215-5.356,4.181-7.913-.777-1.922-.062-2.731,1.115-3.8a25.616,25.616,0,0,0,3.55-3.726c.436-.594,1.316-1.145.567-2.078a.826.826,0,0,1,.425-1.422c2.221-.774,1.722-2.663,1.874-4.3.725-1.323,1.447-.5,2.145.019,1.618,1.2,2.7,2.9,4.055,4.352,3.114,3.347,6.83,6.142,9.284,10.1" transform="translate(-127.217 -207.464)" fill="#30272a"/>
      <path id="Path_137" data-name="Path 137" d="M330.381,252.213l11.132-12.62.579-.7q2.229-2.38,4.455-4.759c.54-.579,1.042-1.259,1.961-.611,1.348,2.716,1.1,4.664-3.171,4.95l2.705.793c-2.234,2.571-4.107,5.324-6.71,7.4-.593.474-.6.353-.18,1.085,1.414,2.463.539,5.663-1.776,7.613-4.049,3.41-4.057,3.417-7.3-.711-.612-.779-1.134-1.63-1.7-2.448" transform="translate(-283.318 -208.974)" fill="#fbf2e2"/>
      <path id="Path_138" data-name="Path 138" d="M258.06,310.233c3.45-5.063,7.959-9.226,11.869-13.9,1.145-1.369.642.942,1.343.9,1.061,2.357-.971,3.6-1.708,5.388-2.193,5.336-6.991,6.132-11.5,7.617" transform="translate(-227.956 -256.921)" fill="#f8efe0"/>
      <path id="Path_139" data-name="Path 139" d="M402.786,304.639c1.621-1.891,3.7-2.975,3.339-5.742-.1-.8,1.658-1.837,2.564-2.766.556.665,1.675,1.455,1.561,1.973-.349,1.585-.793,3.5-1.91,4.474a6.9,6.9,0,0,1-5.554,2.06" transform="translate(-338.745 -257.101)" fill="#f2ece1"/>
      <path id="Path_140" data-name="Path 140" d="M310.177,342.585a8.632,8.632,0,0,1,2.422-5.554c1.217-1.214,1.735-.437,1.857.781.3,2.966-2.016,3.72-4.279,4.773" transform="translate(-267.852 -287.943)" fill="#eae4db"/>
    </g>
  </g>
  <g id="Group_50" data-name="Group 50">
    <g id="Group_49" data-name="Group 49" clip-path="url(#clip-path)">
      <path id="Path_142" data-name="Path 142" d="M106.9,137.021l-.808.966,1.474,1.233a.9.9,0,0,1,.355.55.685.685,0,0,1-.634.761.9.9,0,0,1-.6-.251l-4.013-3.356a.856.856,0,0,1-.363-.576.947.947,0,0,1,.276-.633l1.132-1.353a4.613,4.613,0,0,1,.864-.846,1.79,1.79,0,0,1,.757-.306,1.733,1.733,0,0,1,.8.068,2.315,2.315,0,0,1,.772.441,1.933,1.933,0,0,1,.8,1.5,2.91,2.91,0,0,1-.81,1.8m-2.6-1.74-.594.71,1.591,1.331.594-.71a2.77,2.77,0,0,0,.443-.689.943.943,0,0,0,.064-.6.99.99,0,0,0-.355-.52,1.029,1.029,0,0,0-.73-.267q-.421.034-1.012.741" transform="translate(-78.325 -101.959)" fill="#fff"/>
      <path id="Path_143" data-name="Path 143" d="M131.789,105.751l-2.329,2.042,1.1,1.253,2.145-1.88a.678.678,0,0,1,.446-.2.48.48,0,0,1,.362.178.5.5,0,0,1,.134.384.665.665,0,0,1-.259.421l-2.145,1.88,1.272,1.451,2.409-2.111a.7.7,0,0,1,.466-.209.518.518,0,0,1,.388.193.506.506,0,0,1,.134.4.7.7,0,0,1-.268.435l-2.81,2.463a.88.88,0,0,1-.617.276.889.889,0,0,1-.572-.354l-3.362-3.837a1.143,1.143,0,0,1-.253-.422.546.546,0,0,1,.027-.387,1.162,1.162,0,0,1,.3-.38l2.73-2.392a.706.706,0,0,1,.463-.213.543.543,0,0,1,.507.578.7.7,0,0,1-.271.431" transform="translate(-97.99 -80.18)" fill="#fff"/>
      <path id="Path_144" data-name="Path 144" d="M169.136,91.195l-.728-.549-2.336,1.467.189.91a3.048,3.048,0,0,1,.091.755.517.517,0,0,1-.278.385.644.644,0,0,1-.489.083.582.582,0,0,1-.4-.259.973.973,0,0,1-.113-.267c-.026-.1-.056-.244-.09-.43l-.874-4.656c-.026-.133-.056-.294-.092-.481a2.318,2.318,0,0,1-.047-.492.9.9,0,0,1,.111-.406.947.947,0,0,1,.344-.345.962.962,0,0,1,.464-.163.92.92,0,0,1,.411.072,1.942,1.942,0,0,1,.365.206q.173.123.454.335l3.831,2.765a2.208,2.208,0,0,1,.563.5.6.6,0,0,1,.064.471.646.646,0,0,1-.3.419.619.619,0,0,1-.266.1.572.572,0,0,1-.248-.03,1.465,1.465,0,0,1-.306-.169q-.186-.127-.325-.225m-3.307-.147,1.717-1.079-2.356-1.827Z" transform="translate(-125.52 -66.404)" fill="#fff"/>
      <path id="Path_145" data-name="Path 145" d="M200.423,70.852a1.807,1.807,0,0,1,.127.708,2.522,2.522,0,0,1-.173.878,2.562,2.562,0,0,1-.575.885,3.146,3.146,0,0,1-1.054.693,4.333,4.333,0,0,1-.939.288,2.752,2.752,0,0,1-.859.02,2.688,2.688,0,0,1-.828-.265,3.363,3.363,0,0,1-.7-.48,3.72,3.72,0,0,1-.592-.666,4.594,4.594,0,0,1-.46-.841,4.226,4.226,0,0,1-.354-1.444,3.132,3.132,0,0,1,.2-1.287,2.974,2.974,0,0,1,.685-1.053,3.372,3.372,0,0,1,1.078-.719,3.176,3.176,0,0,1,1.479-.271,2.66,2.66,0,0,1,1.225.363,1.61,1.61,0,0,1,.673.708.6.6,0,0,1,.009.448.529.529,0,0,1-.3.324.555.555,0,0,1-.413.039,1.734,1.734,0,0,1-.439-.281,2.074,2.074,0,0,0-.877-.448,1.542,1.542,0,0,0-.923.12,1.624,1.624,0,0,0-.991,1.119,2.912,2.912,0,0,0,.252,1.879,3.39,3.39,0,0,0,.719,1.125,1.661,1.661,0,0,0,.886.477,1.738,1.738,0,0,0,.979-.134,1.674,1.674,0,0,0,.808-.662,1.776,1.776,0,0,0,.232-1.036,1.462,1.462,0,0,1,.029-.488.492.492,0,0,1,.317-.318.586.586,0,0,1,.455-.007.572.572,0,0,1,.328.323" transform="translate(-148.516 -51.513)" fill="#fff"/>
      <path id="Path_146" data-name="Path 146" d="M234.831,55.438l-3.007.742.4,1.618,2.768-.683a.68.68,0,0,1,.49.024.481.481,0,0,1,.24.325.5.5,0,0,1-.058.4.663.663,0,0,1-.424.255l-2.768.684.463,1.874,3.11-.768a.7.7,0,0,1,.51.029.518.518,0,0,1,.255.349.506.506,0,0,1-.065.42.7.7,0,0,1-.438.263l-3.627.9a.719.719,0,0,1-1.02-.616L230.437,56.3a1.149,1.149,0,0,1-.031-.491.547.547,0,0,1,.2-.331,1.159,1.159,0,0,1,.445-.2l3.524-.87a.7.7,0,0,1,.509.025.492.492,0,0,1,.246.332.5.5,0,0,1-.062.414.708.708,0,0,1-.439.258" transform="translate(-176.366 -41.624)" fill="#fff"/>
      <path id="Path_147" data-name="Path 147" d="M289.357,48.8a3.627,3.627,0,0,1,1.812.431,2.779,2.779,0,0,1,1.144,1.22,4.152,4.152,0,0,1,.385,1.855,4.538,4.538,0,0,1-.215,1.43,3.1,3.1,0,0,1-.641,1.115,2.8,2.8,0,0,1-1.048.721,4.129,4.129,0,0,1-2.847-.012,2.834,2.834,0,0,1-1.05-.726,3.094,3.094,0,0,1-.635-1.126,4.536,4.536,0,0,1-.213-1.422,4.384,4.384,0,0,1,.227-1.435,3.074,3.074,0,0,1,.652-1.11,2.809,2.809,0,0,1,1.038-.7,3.726,3.726,0,0,1,1.389-.241M291.3,52.3a3.182,3.182,0,0,0-.239-1.292,1.8,1.8,0,0,0-.686-.828,1.887,1.887,0,0,0-1.025-.282,1.859,1.859,0,0,0-.762.154,1.668,1.668,0,0,0-.6.45,2.146,2.146,0,0,0-.4.756,3.427,3.427,0,0,0-.148,1.035,3.505,3.505,0,0,0,.144,1.046,2.145,2.145,0,0,0,.411.776,1.728,1.728,0,0,0,.61.462,1.928,1.928,0,0,0,1.727-.108,1.825,1.825,0,0,0,.7-.813A3.15,3.15,0,0,0,291.3,52.3" transform="translate(-218.973 -37.36)" fill="#fff"/>
      <path id="Path_148" data-name="Path 148" d="M331.471,53.144l-2.673-.436-.28,1.713,2.234.365a.677.677,0,0,1,.441.215.484.484,0,0,1,.092.4.475.475,0,0,1-.216.345.692.692,0,0,1-.484.062l-2.234-.365-.36,2.207a.9.9,0,0,1-.291.593.7.7,0,0,1-.977-.162.9.9,0,0,1-.088-.652l.841-5.154a1.14,1.14,0,0,1,.165-.463.544.544,0,0,1,.316-.225,1.154,1.154,0,0,1,.487-.008l3.2.522a.706.706,0,0,1,.459.223.542.542,0,0,1-.124.759.7.7,0,0,1-.505.065" transform="translate(-250.025 -39.465)" fill="#fff"/>
      <path id="Path_149" data-name="Path 149" d="M380.894,72.181a2,2,0,0,1-.714.9,2.108,2.108,0,0,1-1.151.358,3.485,3.485,0,0,1-1.446-.295,3.255,3.255,0,0,1-1.388-.981,2.2,2.2,0,0,1-.418-.96,1.65,1.65,0,0,1,.07-.93.6.6,0,0,1,.8-.327.524.524,0,0,1,.287.269,1.092,1.092,0,0,1,.081.479,2.721,2.721,0,0,0,.053.607,1.131,1.131,0,0,0,.255.493,1.555,1.555,0,0,0,.61.4,1.616,1.616,0,0,0,1.027.114.857.857,0,0,0,.624-.512.754.754,0,0,0,.018-.586,1.327,1.327,0,0,0-.37-.5q-.259-.228-.717-.551a6.4,6.4,0,0,1-.98-.836,1.981,1.981,0,0,1-.486-.876,1.621,1.621,0,0,1,.107-1.02,1.692,1.692,0,0,1,.661-.8,1.926,1.926,0,0,1,1.072-.282,3.611,3.611,0,0,1,1.348.3,3.366,3.366,0,0,1,.941.554,2.292,2.292,0,0,1,.544.669,1.719,1.719,0,0,1,.2.666,1.244,1.244,0,0,1-.081.562.649.649,0,0,1-.329.343.553.553,0,0,1-.475.017.5.5,0,0,1-.287-.246,1.575,1.575,0,0,1-.1-.458,1.754,1.754,0,0,0-.183-.724,1.3,1.3,0,0,0-.689-.516,1.443,1.443,0,0,0-.883-.11.681.681,0,0,0-.516.4.572.572,0,0,0-.031.368.928.928,0,0,0,.186.352,2.026,2.026,0,0,0,.3.3q.161.131.541.413a10.351,10.351,0,0,1,.848.669,3.143,3.143,0,0,1,.582.665,1.619,1.619,0,0,1,.248.735,1.877,1.877,0,0,1-.161.872" transform="translate(-287.633 -50.79)" fill="#fff"/>
      <path id="Path_150" data-name="Path 150" d="M414.087,84.368a3.627,3.627,0,0,1,1.318,1.316,2.774,2.774,0,0,1,.336,1.638A4.149,4.149,0,0,1,415.1,89.1a4.527,4.527,0,0,1-.932,1.106,3.1,3.1,0,0,1-1.129.615,2.8,2.8,0,0,1-1.27.066,3.782,3.782,0,0,1-1.341-.533,3.74,3.74,0,0,1-1.079-.967,2.83,2.83,0,0,1-.514-1.168,3.094,3.094,0,0,1,.049-1.292,4.537,4.537,0,0,1,.563-1.323,4.395,4.395,0,0,1,.944-1.1,3.08,3.08,0,0,1,1.137-.6,2.808,2.808,0,0,1,1.251-.053,3.729,3.729,0,0,1,1.309.522m-.169,4a3.187,3.187,0,0,0,.473-1.226,1.8,1.8,0,0,0-.152-1.064,1.889,1.889,0,0,0-.726-.777,1.855,1.855,0,0,0-.729-.268,1.667,1.667,0,0,0-.749.068,2.152,2.152,0,0,0-.736.435,3.434,3.434,0,0,0-.667.8,3.514,3.514,0,0,0-.425.967,2.143,2.143,0,0,0-.056.876,1.727,1.727,0,0,0,.278.713,1.929,1.929,0,0,0,1.528.812,1.826,1.826,0,0,0,1.027-.324,3.154,3.154,0,0,0,.934-1.017" transform="translate(-312.929 -64.15)" fill="#fff"/>
      <path id="Path_151" data-name="Path 151" d="M442.41,108.011l2.166-2.441a.912.912,0,0,1,.555-.343.634.634,0,0,1,.507.172.649.649,0,0,1,.241.492.908.908,0,0,1-.275.592l-2.215,2.5a3.052,3.052,0,0,0-.536.8,1.1,1.1,0,0,0-.056.743,1.656,1.656,0,0,0,.539.76,1.359,1.359,0,0,0,1.136.435,2.1,2.1,0,0,0,1.111-.75l2.234-2.517a.912.912,0,0,1,.555-.346.633.633,0,0,1,.507.174.655.655,0,0,1,.239.488.891.891,0,0,1-.273.6L446.68,111.8a4.825,4.825,0,0,1-1,.891,2.051,2.051,0,0,1-1.059.311,2.267,2.267,0,0,1-.976-.2,3.758,3.758,0,0,1-.963-.644,4.711,4.711,0,0,1-.9-1.021,2.157,2.157,0,0,1-.342-1,2.117,2.117,0,0,1,.211-1.026,4.626,4.626,0,0,1,.752-1.1" transform="translate(-337.927 -80.548)" fill="#fff"/>
      <path id="Path_152" data-name="Path 152" d="M471.307,135.729l-3.817,3.135,1.769,2.154a.734.734,0,0,1,.2.5.528.528,0,0,1-.2.4.515.515,0,0,1-.425.121.754.754,0,0,1-.446-.3l-2.107-2.564a.72.72,0,0,1,.116-1.186l4.038-3.318a.908.908,0,0,1,.6-.252.632.632,0,0,1,.474.249.656.656,0,0,1,.16.519.893.893,0,0,1-.363.547" transform="translate(-356.741 -102.895)" fill="#fff"/>
      <path id="Path_153" data-name="Path 153" d="M151.87,491.284l-.968-.652-.995,1.478a.834.834,0,0,1-.473.38.635.635,0,0,1-.763-.511.831.831,0,0,1,.174-.574l2.709-4.023a.793.793,0,0,1,.5-.39.879.879,0,0,1,.61.193l1.356.913a4.291,4.291,0,0,1,.863.715,1.667,1.667,0,0,1,.355.669,1.608,1.608,0,0,1,.014.744,2.146,2.146,0,0,1-.332.754,1.794,1.794,0,0,1-1.305.878,2.694,2.694,0,0,1-1.74-.574m1.354-2.565-.712-.479-1.074,1.595.712.48a2.565,2.565,0,0,0,.677.342.88.88,0,0,0,.556,0,.924.924,0,0,0,.446-.378.954.954,0,0,0,.176-.7q-.072-.385-.781-.862" transform="translate(-113.804 -372.79)" fill="#fff"/>
      <path id="Path_154" data-name="Path 154" d="M182.057,506.506l-1.559,3.006a.754.754,0,0,1-.393.4.555.555,0,0,1-.46-.036.529.529,0,0,1-.286-.356.78.78,0,0,1,.1-.543L181,506a.751.751,0,0,1,.384-.39.541.541,0,0,1,.453.036.561.561,0,0,1,.3.352.68.68,0,0,1-.077.511m.043-1.341a.615.615,0,0,1-.3-.326.583.583,0,0,1,.388-.739.6.6,0,0,1,.442.048.613.613,0,0,1,.291.315.52.52,0,0,1-.039.458.536.536,0,0,1-.347.3.593.593,0,0,1-.432-.052" transform="translate(-137.287 -385.875)" fill="#fff"/>
      <path id="Path_155" data-name="Path 155" d="M201.7,518.523l-.346-1.959-.81.329-.338.868a.716.716,0,0,1-.355.421.558.558,0,0,1-.448.021.53.53,0,0,1-.33-.322.8.8,0,0,1,.049-.552l1.815-4.654a.989.989,0,0,1,.356-.5.5.5,0,0,1,.474-.034.535.535,0,0,1,.333.328.814.814,0,0,1-.05.565l-1.032,2.647,1.73-.809a3.269,3.269,0,0,1,.476-.193.516.516,0,0,1,.326.026.507.507,0,0,1,.289.262.464.464,0,0,1,.009.379q-.094.24-.693.467l-.787.306.433,2.2c.031.163.052.286.062.368a.446.446,0,0,1-.022.215.614.614,0,0,1-.3.354.525.525,0,0,1-.432,0,.445.445,0,0,1-.266-.228,2.79,2.79,0,0,1-.139-.506" transform="translate(-152.368 -392.013)" fill="#fff"/>
      <path id="Path_156" data-name="Path 156" d="M232.552,532.828l-2.222-.56a1.552,1.552,0,0,0-.016.722,1.075,1.075,0,0,0,.809.836,1.407,1.407,0,0,0,.385.046,1.256,1.256,0,0,0,.364-.068,2.616,2.616,0,0,0,.346-.145q.163-.083.425-.23a.387.387,0,0,1,.269-.012.424.424,0,0,1,.259.167.353.353,0,0,1,.04.3.763.763,0,0,1-.212.33,1.478,1.478,0,0,1-.464.3,2.132,2.132,0,0,1-.691.16,2.715,2.715,0,0,1-.878-.088,2.338,2.338,0,0,1-1.545-1.053,2.4,2.4,0,0,1-.181-1.847,2.91,2.91,0,0,1,.385-.9,2.129,2.129,0,0,1,.623-.629,1.956,1.956,0,0,1,.827-.294,2.614,2.614,0,0,1,.974.07,2.278,2.278,0,0,1,1.071.569,1.907,1.907,0,0,1,.531.906,1.969,1.969,0,0,1,.009.967q-.108.429-.385.494a1.579,1.579,0,0,1-.723-.047m-2.06-1.2,2.06.519a1.424,1.424,0,0,0-.095-.951.971.971,0,0,0-.645-.47.94.94,0,0,0-.771.118,1.5,1.5,0,0,0-.549.784" transform="translate(-175.408 -405.603)" fill="#fff"/>
      <path id="Path_157" data-name="Path 157" d="M265.6,529.97l-2.025-.233-.4,1.353a2.416,2.416,0,0,1,1.154-.2,1.932,1.932,0,0,1,.748.242,1.966,1.966,0,0,1,.924,1.186,2.077,2.077,0,0,1,.062.815,2.326,2.326,0,0,1-.407,1.094,2.06,2.06,0,0,1-.892.714,2.4,2.4,0,0,1-1.239.16,2.428,2.428,0,0,1-1.206-.424,1.766,1.766,0,0,1-.6-.724,1.387,1.387,0,0,1-.125-.66.462.462,0,0,1,.175-.3.457.457,0,0,1,.365-.11.574.574,0,0,1,.485.475,1.449,1.449,0,0,0,.393.643,1.083,1.083,0,0,0,.624.286.994.994,0,0,0,.595-.1,1.112,1.112,0,0,0,.436-.425,1.65,1.65,0,0,0,.212-.662,1.561,1.561,0,0,0-.064-.716,1.013,1.013,0,0,0-.338-.477,1.051,1.051,0,0,0-.525-.205,1.133,1.133,0,0,0-.535.029,4.662,4.662,0,0,0-.49.261.9.9,0,0,1-.514.167.532.532,0,0,1-.353-.194.463.463,0,0,1-.122-.362q0-.021.08-.284l.593-2a.987.987,0,0,1,.283-.507.718.718,0,0,1,.548-.105l2.251.259q.665.077.607.584a.449.449,0,0,1-.2.339.727.727,0,0,1-.493.082" transform="translate(-200.246 -404.72)" fill="#fff"/>
      <path id="Path_158" data-name="Path 158" d="M298.849,533.432a7.346,7.346,0,0,1-.065,1.212,2.818,2.818,0,0,1-.3.924,2.109,2.109,0,0,1-.742.794,1.988,1.988,0,0,1-1.025.292,1.964,1.964,0,0,1-1.176-.349,2.243,2.243,0,0,1-.8-1.008,3.769,3.769,0,0,1-.209-.784,6.608,6.608,0,0,1-.078-.932,8.981,8.981,0,0,1,.049-1.168,3.867,3.867,0,0,1,.2-.9,1.92,1.92,0,0,1,1.867-1.3,2.149,2.149,0,0,1,.8.13,1.826,1.826,0,0,1,.64.41,2.4,2.4,0,0,1,.473.677,4.928,4.928,0,0,1,.36,2m-1.177-.066a7.143,7.143,0,0,0-.116-1.284,1.58,1.58,0,0,0-.331-.75.777.777,0,0,0-.622-.245.794.794,0,0,0-.778.584,5.19,5.19,0,0,0-.191,1.763,7.549,7.549,0,0,0,.117,1.32,1.658,1.658,0,0,0,.331.773.829.829,0,0,0,1.222-.032,1.7,1.7,0,0,0,.3-.791,7.966,7.966,0,0,0,.067-1.34" transform="translate(-225.407 -405.883)" fill="#fff"/>
      <path id="Path_159" data-name="Path 159" d="M330.966,535.136l.266,1.535a.8.8,0,0,1-.071.574.568.568,0,0,1-.4.257.551.551,0,0,1-.457-.108.807.807,0,0,1-.257-.517l-.318-1.839a6.017,6.017,0,0,0-.147-.672.744.744,0,0,0-.229-.367.523.523,0,0,0-.441-.083.747.747,0,0,0-.679.518,2.781,2.781,0,0,0,.014,1.148l.27,1.561a.808.808,0,0,1-.068.571.554.554,0,0,1-.4.258.561.561,0,0,1-.461-.11.793.793,0,0,1-.261-.514l-.572-3.3a.733.733,0,0,1,.064-.521.51.51,0,0,1,.366-.238.544.544,0,0,1,.423.09.6.6,0,0,1,.234.41l.019.11a2.045,2.045,0,0,1,.551-.64,1.718,1.718,0,0,1,.732-.3,1.542,1.542,0,0,1,.779.044,1.376,1.376,0,0,1,.607.435,2.033,2.033,0,0,1,.534-.635,1.622,1.622,0,0,1,.71-.3,1.714,1.714,0,0,1,.849.044,1.2,1.2,0,0,1,.6.444,2.469,2.469,0,0,1,.319.959l.391,2.254a.8.8,0,0,1-.071.574.611.611,0,0,1-.865.148.8.8,0,0,1-.261-.514l-.337-1.941a4.462,4.462,0,0,0-.135-.591.7.7,0,0,0-.237-.347.556.556,0,0,0-.449-.079.787.787,0,0,0-.41.211.927.927,0,0,0-.256.419,2.939,2.939,0,0,0,.052,1.054" transform="translate(-250.117 -407.607)" fill="#fff"/>
      <path id="Path_160" data-name="Path 160" d="M367.309,520.774a.619.619,0,0,1-.444-.019.583.583,0,0,1-.244-.8.6.6,0,0,1,.347-.277.614.614,0,0,1,.429.02.519.519,0,0,1,.294.353.536.536,0,0,1-.038.455.6.6,0,0,1-.344.267m.913.983,1.007,3.233a.757.757,0,0,1,0,.558.554.554,0,0,1-.352.3.528.528,0,0,1-.454-.051.777.777,0,0,1-.311-.457l-1-3.2a.751.751,0,0,1,0-.548.541.541,0,0,1,.347-.292.562.562,0,0,1,.458.042.681.681,0,0,1,.305.417" transform="translate(-280.592 -397.795)" fill="#fff"/>
      <path id="Path_161" data-name="Path 161" d="M386.581,518.627l-1.908-4.71a.789.789,0,0,1-.054-.552.531.531,0,0,1,.324-.326.554.554,0,0,1,.465,0,.768.768,0,0,1,.352.434l1.908,4.71a.761.761,0,0,1,.048.557.558.558,0,0,1-.329.326.529.529,0,0,1-.458-.014.776.776,0,0,1-.347-.428" transform="translate(-294.405 -392.697)" fill="#fff"/>
      <path id="Path_162" data-name="Path 162" d="M410.532,509.843l-2.019,1.085a1.554,1.554,0,0,0,.475.544,1.076,1.076,0,0,0,1.162.072,1.388,1.388,0,0,0,.315-.225,1.242,1.242,0,0,0,.223-.3,2.547,2.547,0,0,0,.158-.341q.064-.171.159-.456a.384.384,0,0,1,.19-.19.425.425,0,0,1,.3-.051.355.355,0,0,1,.23.193.764.764,0,0,1,.066.386,1.478,1.478,0,0,1-.138.537,2.147,2.147,0,0,1-.4.584,2.717,2.717,0,0,1-.708.527,2.338,2.338,0,0,1-1.851.264,2.4,2.4,0,0,1-1.379-1.242,2.905,2.905,0,0,1-.32-.922,2.125,2.125,0,0,1,.036-.884,1.958,1.958,0,0,1,.412-.775,2.621,2.621,0,0,1,.766-.6,2.276,2.276,0,0,1,1.175-.3,1.906,1.906,0,0,1,1,.311,1.969,1.969,0,0,1,.658.708.584.584,0,0,1,.048.625,1.572,1.572,0,0,1-.566.453m-2.333.5,1.871-1.006a1.424,1.424,0,0,0-.711-.639.969.969,0,0,0-.794.088.937.937,0,0,0-.49.607,1.507,1.507,0,0,0,.123.95" transform="translate(-311.537 -388.681)" fill="#fff"/>
      <path id="Path_163" data-name="Path 163" d="M438.086,493a1.36,1.36,0,0,1,.031,1.645,3.135,3.135,0,0,1-.808.8,2.729,2.729,0,0,1-.992.473,1.573,1.573,0,0,1-.822,0,.972.972,0,0,1-.513-.347.449.449,0,0,1-.081-.348.471.471,0,0,1,.2-.314.4.4,0,0,1,.283-.092.986.986,0,0,1,.3.1,1.288,1.288,0,0,0,.623.129,1.306,1.306,0,0,0,.646-.273.993.993,0,0,0,.378-.464.441.441,0,0,0-.026-.423.488.488,0,0,0-.453-.23,2.9,2.9,0,0,0-.783.229,6.4,6.4,0,0,1-.984.318,1.623,1.623,0,0,1-.747,0,1,1,0,0,1-.573-.408,1.173,1.173,0,0,1-.217-.663,1.444,1.444,0,0,1,.212-.768,2.372,2.372,0,0,1,.695-.728,3.26,3.26,0,0,1,.719-.4,2.051,2.051,0,0,1,.639-.147,1.257,1.257,0,0,1,.505.071.689.689,0,0,1,.323.233.437.437,0,0,1,.083.347.536.536,0,0,1-.237.328.469.469,0,0,1-.309.1,2.019,2.019,0,0,1-.416-.082,1.055,1.055,0,0,0-.415-.04.981.981,0,0,0-.458.2.956.956,0,0,0-.35.417.4.4,0,0,0,.026.4.364.364,0,0,0,.3.155,1.279,1.279,0,0,0,.452-.084q.257-.09.7-.267a3.84,3.84,0,0,1,.909-.261,1.478,1.478,0,0,1,.68.049.969.969,0,0,1,.479.362" transform="translate(-331.885 -375.923)" fill="#fff"/>
      <path id="Path_164" data-name="Path 164" d="M174.971,218.142a7.629,7.629,0,0,1,2.427,3.132,4.833,4.833,0,0,1,3.837.783s-3.446-.313-4.385.94c0,0-.862-3.837-1.879-4.855" transform="translate(-133.941 -166.989)" fill="#30272a"/>
      <path id="Path_165" data-name="Path 165" d="M213.216,164.73a2.2,2.2,0,0,1,.7.9,1.39,1.39,0,0,1,1.1.225s-.991-.09-1.261.271a4.338,4.338,0,0,0-.54-1.4" transform="translate(-163.218 -126.102)" fill="#30272a"/>
      <path id="Path_166" data-name="Path 166" d="M236.091,226.7a7.629,7.629,0,0,1,3.781-1.187,4.833,4.833,0,0,1,2.069-3.325s-1.492,3.122-.644,4.439c0,0-3.9-.527-5.206.073" transform="translate(-180.729 -170.083)" fill="#30272a"/>
      <path id="Path_167" data-name="Path 167" d="M217.056,187.038a4.993,4.993,0,0,1,2.474-.776,3.163,3.163,0,0,1,1.354-2.176s-.976,2.043-.421,2.9c0,0-2.55-.345-3.407.048" transform="translate(-166.157 -140.918)" fill="#30272a"/>
      <path id="Path_168" data-name="Path 168" d="M241.892,168.972a3.6,3.6,0,0,1,1.292,1.35,2.278,2.278,0,0,1,1.837.179s-1.631.022-2.01.655a7.111,7.111,0,0,0-1.119-2.185" transform="translate(-185.17 -129.349)" fill="#30272a"/>
      <path id="Path_169" data-name="Path 169" d="M280.667,185.723a3.6,3.6,0,0,1,1.292,1.35,2.278,2.278,0,0,1,1.837.179s-1.631.022-2.01.655a7.111,7.111,0,0,0-1.119-2.185" transform="translate(-214.852 -142.172)" fill="#30272a"/>
      <path id="Path_170" data-name="Path 170" d="M346.5,190.61a2.9,2.9,0,0,1,1.141-.984,1.836,1.836,0,0,1,.22-1.472s-.05,1.314.445,1.646a5.737,5.737,0,0,0-1.806.811" transform="translate(-265.249 -144.032)" fill="#30272a"/>
      <path id="Path_171" data-name="Path 171" d="M22.153,296.11a1.288,1.288,0,0,1-.2.714,1.361,1.361,0,0,1-.6.5,2.244,2.244,0,0,1-.935.18,2.106,2.106,0,0,1-1.07-.245,1.425,1.425,0,0,1-.486-.471,1.07,1.07,0,0,1-.187-.572.388.388,0,0,1,.4-.392.337.337,0,0,1,.238.09.7.7,0,0,1,.166.266,1.773,1.773,0,0,0,.181.349.732.732,0,0,0,.273.232,1.008,1.008,0,0,0,.463.091,1.046,1.046,0,0,0,.641-.184.554.554,0,0,0,.247-.459.486.486,0,0,0-.133-.354.86.86,0,0,0-.344-.208q-.211-.071-.563-.153a4.143,4.143,0,0,1-.791-.258,1.277,1.277,0,0,1-.5-.4,1.046,1.046,0,0,1-.187-.635,1.091,1.091,0,0,1,.2-.643,1.245,1.245,0,0,1,.571-.432,2.333,2.333,0,0,1,.879-.151,2.171,2.171,0,0,1,.7.1,1.47,1.47,0,0,1,.489.266,1.114,1.114,0,0,1,.284.348.8.8,0,0,1,.09.356.421.421,0,0,1-.112.285.357.357,0,0,1-.279.127.322.322,0,0,1-.232-.076,1.026,1.026,0,0,1-.172-.25,1.129,1.129,0,0,0-.287-.387.838.838,0,0,0-.538-.139.932.932,0,0,0-.554.151.439.439,0,0,0-.211.363.369.369,0,0,0,.072.227.6.6,0,0,0,.2.164,1.326,1.326,0,0,0,.254.108q.128.039.424.113a6.726,6.726,0,0,1,.671.191,2.038,2.038,0,0,1,.511.254,1.048,1.048,0,0,1,.329.378,1.213,1.213,0,0,1,.118.56" transform="translate(-14.293 -224.269)" fill="#fff"/>
      <path id="Path_172" data-name="Path 172" d="M36.363,296.96v-3.452a.582.582,0,0,1,.122-.4.409.409,0,0,1,.317-.135.422.422,0,0,1,.324.133.575.575,0,0,1,.124.4v3.452a.581.581,0,0,1-.124.406.42.42,0,0,1-.324.135.408.408,0,0,1-.315-.136.583.583,0,0,1-.124-.405" transform="translate(-27.836 -224.27)" fill="#fff"/>
      <path id="Path_173" data-name="Path 173" d="M45.053,293.5l1.707,2.582v-2.606a.572.572,0,0,1,.109-.381.368.368,0,0,1,.295-.127.379.379,0,0,1,.3.127.567.567,0,0,1,.11.381v3.446q0,.577-.478.577a.637.637,0,0,1-.215-.034.545.545,0,0,1-.179-.109,1.044,1.044,0,0,1-.155-.175q-.072-.1-.144-.2l-1.665-2.552v2.568a.549.549,0,0,1-.117.38.387.387,0,0,1-.3.128.381.381,0,0,1-.3-.13.558.558,0,0,1-.114-.378v-3.38a.956.956,0,0,1,.048-.338.479.479,0,0,1,.188-.22.513.513,0,0,1,.284-.085.462.462,0,0,1,.354.144,1.063,1.063,0,0,1,.132.17l.139.218" transform="translate(-33.612 -224.269)" fill="#fff"/>
      <path id="Path_174" data-name="Path 174" d="M66.335,296.042a1.167,1.167,0,0,1-.1.453,1.662,1.662,0,0,1-.889.859,2.034,2.034,0,0,1-.8.147,2.786,2.786,0,0,1-.631-.066,1.768,1.768,0,0,1-.516-.2,1.742,1.742,0,0,1-.426-.366,2.178,2.178,0,0,1-.3-.462,2.4,2.4,0,0,1-.184-.545,2.96,2.96,0,0,1-.061-.616,2.73,2.73,0,0,1,.154-.948,2.02,2.02,0,0,1,.441-.716,1.922,1.922,0,0,1,.673-.453,2.173,2.173,0,0,1,.822-.156,2.051,2.051,0,0,1,.948.212,1.715,1.715,0,0,1,.637.524,1.037,1.037,0,0,1,.221.59.384.384,0,0,1-.108.269.341.341,0,0,1-.26.117.358.358,0,0,1-.255-.081,1.105,1.105,0,0,1-.19-.278,1.337,1.337,0,0,0-.408-.487,1,1,0,0,0-.578-.162,1.048,1.048,0,0,0-.871.415,1.881,1.881,0,0,0-.324,1.18,2.189,2.189,0,0,0,.144.851,1.071,1.071,0,0,0,.406.507,1.12,1.12,0,0,0,.616.167,1.081,1.081,0,0,0,.647-.19,1.145,1.145,0,0,0,.4-.557.96.96,0,0,1,.14-.283.319.319,0,0,1,.269-.109.377.377,0,0,1,.272.111.369.369,0,0,1,.113.275" transform="translate(-47.79 -224.269)" fill="#fff"/>
      <path id="Path_175" data-name="Path 175" d="M84.856,293.973h-2v1.076H84.7a.44.44,0,0,1,.3.091.31.31,0,0,1,.1.241.322.322,0,0,1-.1.243.428.428,0,0,1-.305.094H82.857v1.247h2.068a.452.452,0,0,1,.315.1.334.334,0,0,1,.106.258.328.328,0,0,1-.106.253.453.453,0,0,1-.315.1H82.513a.465.465,0,0,1-.544-.544v-3.294a.738.738,0,0,1,.057-.312.355.355,0,0,1,.178-.176.752.752,0,0,1,.309-.055h2.343a.457.457,0,0,1,.315.094.319.319,0,0,1,.1.247.322.322,0,0,1-.1.25.457.457,0,0,1-.315.094" transform="translate(-62.748 -224.513)" fill="#fff"/>
      <path id="Path_176" data-name="Path 176" d="M280.654,202.6c.016-.107-.037-.153-.136-.168-.117-.018-.233-.038-.348-.064-.06-.013-.107-.035-.08-.122.054-.176.014-.231-.173-.244a5.3,5.3,0,0,0-.959,0,1.037,1.037,0,0,1-.48-.054,1.872,1.872,0,0,0-.785-.1c-.28.019-.56.043-.839.068a.366.366,0,0,1-.285-.09c-.194-.164-.416-.29-.614-.451-.238-.193-.516-.333-.767-.514-.345-.247-.725-.443-1.08-.678-.292-.193-.612-.343-.907-.536a4.52,4.52,0,0,0-.669-.366,2.05,2.05,0,0,0-.775-.289c-.616-.011-1.23-.049-1.846-.031a7.957,7.957,0,0,1-.964-.128.21.21,0,0,1-.1-.052.379.379,0,0,0-.4-.071.564.564,0,0,1-.335.023.781.781,0,0,0-.408.013,1.922,1.922,0,0,1-.99-.034c-.265-.07-.506-.207-.776-.257a2.3,2.3,0,0,0-.383-.02c-.037,0-.086.018-.1-.035a.787.787,0,0,1-.04-.545.666.666,0,0,0,.038-.362,7.926,7.926,0,0,0-.338-1.412,1.138,1.138,0,0,0-.436-.607,1.9,1.9,0,0,0-1.144-.268.286.286,0,0,1-.217-.061.154.154,0,0,0-.253.03.132.132,0,0,1-.108.067,1.837,1.837,0,0,0-1.165.413,1.78,1.78,0,0,0-.652,1.122,6.817,6.817,0,0,0-.018.766c-.007.2-.06.264-.26.234a8.526,8.526,0,0,1-1.373-.228,1.83,1.83,0,0,0-.916-.023,3.8,3.8,0,0,1-1.237-.089.148.148,0,0,1-.091-.044.252.252,0,0,0-.212-.08,5.768,5.768,0,0,1-1.079-.147,3.133,3.133,0,0,1-1.489-.753,2.138,2.138,0,0,0-.417-.289,8.114,8.114,0,0,0-1.557-.568c-.407-.14-.839-.2-1.257-.313a3.817,3.817,0,0,1-.673-.215c-.322-.152-.636-.329-.956-.478a.847.847,0,0,1-.5-.584c-.059-.211-.13-.419-.182-.632a3.23,3.23,0,0,0-.513-.92c-.079-.126-.169-.249-.249-.377-.166-.265-.341-.524-.516-.783a.146.146,0,0,0-.177-.072c-.07.03-.062.106-.054.17a1.607,1.607,0,0,0,.156.459c.027.063.077.122.055.2a.513.513,0,0,1-.249-.234.487.487,0,0,0-.27-.191c-.089-.027-.155.009-.147.1s.022.155-.1.165c-.038,0-.038.064-.038.1a.425.425,0,0,0,.1.272.193.193,0,0,1,.053.2.454.454,0,0,0,.069.458,2.1,2.1,0,0,1,.28.625,2.5,2.5,0,0,0,.477.939c.138.174.313.326.45.5a2.176,2.176,0,0,0,.965.7l.783.305c.3.117.568.3.865.431a3.515,3.515,0,0,1,.64.33c.244.17.519.274.772.422.131.076.273.134.4.21.282.165.56.338.84.506a.178.178,0,0,0,.083.028,1.768,1.768,0,0,1,.643.183,2,2,0,0,1,1.014.637c.079.121.227.19.288.329a3.674,3.674,0,0,0,.234.356c.075.129.2.214.28.335a4.046,4.046,0,0,0,.4.514.418.418,0,0,0,.324.138c.351-.011.7.063,1.046.065a.433.433,0,0,1,.334.128,6.941,6.941,0,0,0,.567.59c.094.08.21.152.228.294a1.277,1.277,0,0,0,.1.383.166.166,0,0,1-.115.257,1.572,1.572,0,0,0-.723.62,1.853,1.853,0,0,0-.266,1.531c.072.395.383.667.5,1.037a.09.09,0,0,0,.026.035,4.022,4.022,0,0,1,.386.439,5.1,5.1,0,0,1,.562.786,1.778,1.778,0,0,0,.514.646,1.152,1.152,0,0,1,.241.166.791.791,0,0,0,.45.285.271.271,0,0,1,.149.109,1.26,1.26,0,0,0,.545.454.6.6,0,0,1,.324.26.718.718,0,0,0,.375.284.944.944,0,0,1,.22.146c.031.022.036.048.02.089-.152.4,0,.516.355.592a3.368,3.368,0,0,1,.5.106.3.3,0,0,1,.217.268c0,.241.18.409.217.631,0,.026.034.059.016.08-.091.1-.063.221-.073.335s-.039.147-.157.108c-.32-.106-.646-.193-.966-.3a5.406,5.406,0,0,1-1.463-.554,5.14,5.14,0,0,1-.711-.5,3.177,3.177,0,0,0-.459-.313.073.073,0,0,0-.1,0c-.035.031-.013.066,0,.095a1.287,1.287,0,0,0,.228.322,5.1,5.1,0,0,1,.435.394,1.281,1.281,0,0,0,.244.273c.293.2.49.5.786.7a1.368,1.368,0,0,1,.172.159.989.989,0,0,0-.182-.024.532.532,0,0,0-.54.221.69.69,0,0,0-.022.678.441.441,0,0,0,.493.222.6.6,0,0,1,.516.126c.095.079.159.144.138.276a.487.487,0,0,0,.3.531.508.508,0,0,0,.555-.075.494.494,0,0,0,.107-.6c-.034-.072-.078-.135-.117-.2-.029-.049-.075-.1.042-.136a.521.521,0,0,0,.293-.15c.06-.076.125-.065.208-.035.471.165.943.324,1.408.506.665.26,1.34.495,2,.758.333.132.686.223,1.007.378.35.169.723.269,1.078.418a1.1,1.1,0,0,1,.455.219c.08.09.079.16-.018.233a.642.642,0,0,0-.228.731.566.566,0,0,0,.446.456.734.734,0,0,0,.321-.015c.154-.039.189,0,.179.15a.852.852,0,0,0,.016.293.55.55,0,0,0,1.073-.168.6.6,0,0,0-.45-.609c-.052-.014-.142.03-.14-.08s.072-.132.155-.142a.238.238,0,0,0,.173-.068.2.2,0,0,1,.243-.049c.121.042.238.093.361.129a7.862,7.862,0,0,0,2.694.22.835.835,0,0,0,.519-.177.27.27,0,0,0-.034-.468,2.566,2.566,0,0,0-.48-.226,5.012,5.012,0,0,0-1.02-.226c-.12-.014-.172-.069-.156-.193a.538.538,0,0,0-.049-.257,1.75,1.75,0,0,1-.172-.822.4.4,0,0,0-.04-.3.434.434,0,0,1,.01-.5.515.515,0,0,0,.1-.344c-.026-.223.017-.466-.169-.65a.2.2,0,0,1-.046-.153,2.641,2.641,0,0,0-.625-1.691,1.3,1.3,0,0,1-.37-.848,6.876,6.876,0,0,0-.475-2.1,11.424,11.424,0,0,1-.49-1.575,3.082,3.082,0,0,1-.088-.487,1.065,1.065,0,0,0-.236-.591,4.826,4.826,0,0,0-.48-.511c-.251-.246-.445-.545-.7-.787a.339.339,0,0,0-.258-.105,4.719,4.719,0,0,0-1.165.106c-.452.132-.929.146-1.387.254-.047.011-.106.032-.139-.012s0-.108.023-.152c.1-.152.2-.3.3-.45a.449.449,0,0,1,.207-.159.577.577,0,0,0,.158-.077,1.147,1.147,0,0,1,.582-.171.632.632,0,0,1,.583.163c.08.072.284.076.33.015a8.5,8.5,0,0,0,.553-.861c.077-.135.078-.347.2-.413s.316-.021.478-.027a3.792,3.792,0,0,0,1.375-.232.354.354,0,0,1,.327.023c.206.119.411.239.613.364.32.2.666.35.983.56.35.232.748.382,1.11.6s.794.374,1.177.6c.339.2.713.33,1.064.506a1.462,1.462,0,0,0,.443.135c.456.072.91.151,1.365.227a1.252,1.252,0,0,0,.454.03,3.222,3.222,0,0,1,.514-.028c.34-.011.675.064,1.015.04.144-.01.171-.054.107-.185a.256.256,0,0,0-.178-.12c-.134-.04-.271-.074-.406-.11a.458.458,0,0,1-.227-.09.748.748,0,0,1,.275-.064,7.607,7.607,0,0,0,.851-.064c.251-.052.252-.045.245-.3a.428.428,0,0,1,0-.074m-18.466,9.583c-.053-.033-.1-.178-.041-.224.088-.073.165.057.257.086-.083.045-.1.212-.217.139m4.141-5.152a.617.617,0,0,1,.118-.059,1.208,1.208,0,0,0,.408-.224c.216-.213.519-.182.779-.272.061-.021.121.028.166.077a1.387,1.387,0,0,1,.265.368c.191.429.426.837.586,1.281a.747.747,0,0,1,.013.544,2.627,2.627,0,0,0-.138.9.8.8,0,0,0,.277.654.13.13,0,0,1,.055.141.517.517,0,0,0,.027.3,4.9,4.9,0,0,0,.183.772c.01.022.008.052.022.069a.568.568,0,0,1,.027.613.342.342,0,0,0,.2.467,2.542,2.542,0,0,0,.759.256c.221.04.219.046.229.264.009.187.02.373.034.56.007.089-.022.1-.1.07-.376-.144-.764-.262-1.127-.432-.52-.243-1.074-.4-1.6-.628-.494-.218-1.013-.366-1.5-.589a10.2,10.2,0,0,1-.941-.423,4.409,4.409,0,0,0,.655-.359c.1-.051.149-.093.105-.24-.092-.314-.189-.629-.256-.952a.781.781,0,0,0-.541-.67.2.2,0,0,1-.12-.1,1.38,1.38,0,0,0-.517-.506c-.081-.05-.084-.1-.054-.178a5.236,5.236,0,0,0,.28-.821c.024-.124.129-.2.157-.326.011-.045.065-.038.1-.046.1-.021.2-.031.3-.055a3.172,3.172,0,0,0,1.134-.454" transform="translate(-188.944 -146.342)" fill="#30272a"/>
      <path id="Path_177" data-name="Path 177" d="M199.193,371.717a.96.96,0,0,0-.129-.209,7.632,7.632,0,0,0-2.312-1.757,4.99,4.99,0,0,0-1.279-.262c-.9-.1-1.8-.167-2.7-.231a3.461,3.461,0,0,0-.832.028c-1.2.208-2.39.438-3.586.657-.248.045-.333.172-.326.43a.886.886,0,0,1-.176.462,6.673,6.673,0,0,1-.459.568.616.616,0,0,1-1.069-.011c-.029-.035-.062-.066-.093-.1q-.021-.452-.042-.9a8.838,8.838,0,0,1,3.313-2.014.989.989,0,0,1,.1-.042,3.934,3.934,0,0,1,.725-.226c.978-.114,1.958-.221,2.94-.292s1.916-.363,2.895-.439a14.322,14.322,0,0,0,1.908-.4c.005-.127.006-.253.017-.379a1.4,1.4,0,0,1,1.265-1.349,1.3,1.3,0,0,1,1.51,1.007c.1.335.232.524.609.36a.527.527,0,0,1,.241-.017,12.232,12.232,0,0,0,1.613.121c1.063-.059,2.123-.174,3.179-.31a2.879,2.879,0,0,0,.89-.356c.565-.289,1.1-.634,1.679-.9.715-.328,1.5-.522,2.175-.912a8.642,8.642,0,0,1,2.553-.962,2.459,2.459,0,0,0,1.234-.649l.139-.007c-.029.132-.058.263-.1.432l1.01-.422.1.137a2.065,2.065,0,0,1-.428.474c-.349.2-.733.338-1.1.5-.156.07-.309.146-.449.212,0,.058-.011.087,0,.1.3.412.3.412-.2.553-.3.083-.594.173-.9.238a.518.518,0,0,1-.341-.033c-.415-.244-.711-.04-1.03.208a17.278,17.278,0,0,1-2.9,2.146,1.652,1.652,0,0,1-.586.2,9.226,9.226,0,0,0-2.515.766c-.088.032-.214.122-.219.192-.023.335-.223.362-.5.374a.849.849,0,0,0-.8.953c.078.725.147,1.452.259,2.172a1.764,1.764,0,0,0,.31.545c.248.411.726.541,1.049.856a1.712,1.712,0,0,1,.561,1.266c-.01,1.187.012,2.376-.053,3.56a6.024,6.024,0,0,1-.381,1.434c-.08.252-.12.446.14.629a.374.374,0,0,1,.031.607.564.564,0,0,0-.13.715c.028.058.046.161.015.2a1.671,1.671,0,0,0-.107,1.558l-.294-.215a7.256,7.256,0,0,0,.061.983.492.492,0,0,0,.322.288c.493.125,1,.2,1.494.316a3.466,3.466,0,0,1,.821.274.642.642,0,0,1,.3.418c.016.111-.137.269-.247.371a.622.622,0,0,1-.34.163,5.267,5.267,0,0,1-2.507-.068,1.1,1.1,0,0,0-.376-.008,1.125,1.125,0,0,0,.017.378c.1.254.072.492-.157.6a.65.65,0,0,1-.529-.049c-.223-.132-.2-.364-.08-.585a.77.77,0,0,0-.367-.943q-3.092-1-6.189-1.989a.86.86,0,0,0-.768.495.458.458,0,0,1-.524.432c-.271,0-.339-.182-.371-.375a.461.461,0,0,1,.371-.544c.082-.028.144-.112.215-.17-.073-.061-.138-.154-.222-.177a4.237,4.237,0,0,1-2.132-1.49c-.051-.062-.122-.129-.131-.2a1.367,1.367,0,0,1-.021-.7.619.619,0,0,1,.584-.143c.518.225.936-.035,1.4-.147a1.1,1.1,0,0,0,.729-.525c.108-.17.154-.3-.086-.415-.067-.032-.072-.219-.081-.337-.011-.139.065-.321,0-.411a2.829,2.829,0,0,1-.3-1.262c-.155-.878-.312-1.756-.44-2.638A9.864,9.864,0,0,1,196,373.4a2.324,2.324,0,0,0,.01-.45,1.546,1.546,0,0,1,.421-1.342.747.747,0,0,1,.368-.236,2.041,2.041,0,0,1,1.679.147M197.4,381.27l-.014.1,6.542,2.12a8.794,8.794,0,0,0,.1-1.124c-.019-.409-.169-.817-.155-1.221a9.621,9.621,0,0,1,.229-1.424,7.687,7.687,0,0,0,.223-1.106c.024-.635-.032-1.274-.043-1.911,0-.195.036-.39.045-.586.006-.119-.01-.239-.016-.358a1.115,1.115,0,0,0-.362.046,2.042,2.042,0,0,1-1.422.113,7.248,7.248,0,0,0-1.471-.227,2.649,2.649,0,0,1-1.508-.429c-.279-.187-.559-.374-.845-.549a1.881,1.881,0,0,0-.332-.127,1.164,1.164,0,0,0-.109.376c.036.542.089,1.084.153,1.623a3.8,3.8,0,0,0,.184,1.012c.179.429.118.959.523,1.3a.124.124,0,0,1,.027.1,5.1,5.1,0,0,1-.213,1.221,1.543,1.543,0,0,0-.136.679c.012.37-.041.418-.416.4-.327-.014-.654-.019-.981-.028" transform="translate(-142.53 -277.59)" fill="#fff4e3"/>
      <path id="Path_178" data-name="Path 178" d="M506.712,297.172v-2.72a2.449,2.449,0,0,1-1.022.583.3.3,0,0,1-.223-.1.322.322,0,0,1-.1-.231.262.262,0,0,1,.1-.224,2.115,2.115,0,0,1,.338-.185,2.528,2.528,0,0,0,.578-.359,2.445,2.445,0,0,0,.384-.422q.167-.233.218-.287a.262.262,0,0,1,.192-.054.306.306,0,0,1,.254.123.537.537,0,0,1,.1.338v3.422q0,.6-.409.6a.374.374,0,0,1-.293-.122.523.523,0,0,1-.111-.362" transform="translate(-386.863 -224.425)" fill="#fff"/>
      <path id="Path_179" data-name="Path 179" d="M519.984,294.292a1.054,1.054,0,0,1,.163-.563,1.15,1.15,0,0,1,.478-.423,1.623,1.623,0,0,1,.737-.159,1.914,1.914,0,0,1,.625.093,1.277,1.277,0,0,1,.448.256,1.042,1.042,0,0,1,.266.367,1.1,1.1,0,0,1,.087.435.932.932,0,0,1-.151.523,1.1,1.1,0,0,1-.45.377,1.26,1.26,0,0,1,.421.258,1.052,1.052,0,0,1,.253.371,1.235,1.235,0,0,1,.085.468,1.31,1.31,0,0,1-.182.683,1.237,1.237,0,0,1-.535.48,1.866,1.866,0,0,1-.831.174,1.911,1.911,0,0,1-.849-.174,1.225,1.225,0,0,1-.532-.477,1.31,1.31,0,0,1-.179-.68,1.1,1.1,0,0,1,.759-1.1.949.949,0,0,1-.613-.906m2.143,1.979a.83.83,0,0,0-.1-.407.653.653,0,0,0-.269-.266.809.809,0,0,0-.389-.093.7.7,0,0,0-.511.2.76.76,0,0,0-.206.568.844.844,0,0,0,.1.411.7.7,0,0,0,.265.275.767.767,0,0,0,.75,0,.7.7,0,0,0,.263-.278.865.865,0,0,0,.1-.413m-.747-2.552a.607.607,0,0,0-.453.175.615.615,0,0,0-.172.45.561.561,0,0,0,.176.423.63.63,0,0,0,.454.169.7.7,0,0,0,.256-.045.592.592,0,0,0,.2-.124.555.555,0,0,0,.127-.188.63.63,0,0,0,.045-.241.638.638,0,0,0-.079-.317.571.571,0,0,0-.223-.221.657.657,0,0,0-.329-.081" transform="translate(-397.939 -224.406)" fill="#fff"/>
      <path id="Path_180" data-name="Path 180" d="M536.175,296.876h1.56a.571.571,0,0,1,.356.1.313.313,0,0,1,.122.26.346.346,0,0,1-.1.248.39.39,0,0,1-.294.1h-2.2a.477.477,0,0,1-.35-.124.4.4,0,0,1-.125-.291.738.738,0,0,1,.081-.285,1.017,1.017,0,0,1,.176-.28q.4-.413.717-.707a4.733,4.733,0,0,1,.457-.387,2.64,2.64,0,0,0,.408-.348,1.388,1.388,0,0,0,.248-.359.852.852,0,0,0,.085-.36.649.649,0,0,0-.091-.342.635.635,0,0,0-.248-.235.719.719,0,0,0-.342-.083.7.7,0,0,0-.616.344,1.465,1.465,0,0,0-.1.245,1.029,1.029,0,0,1-.159.308.314.314,0,0,1-.258.108.336.336,0,0,1-.248-.1.363.363,0,0,1-.1-.269,1.128,1.128,0,0,1,.093-.431,1.237,1.237,0,0,1,.276-.407,1.374,1.374,0,0,1,.466-.294,1.788,1.788,0,0,1,.662-.112,1.912,1.912,0,0,1,.78.144,1.178,1.178,0,0,1,.368.263,1.237,1.237,0,0,1,.335.843,1.276,1.276,0,0,1-.184.674,2.11,2.11,0,0,1-.375.475q-.191.172-.641.539a4.826,4.826,0,0,0-.617.571,1.7,1.7,0,0,0-.147.194" transform="translate(-409.658 -224.425)" fill="#fff"/>
      <path id="Path_181" data-name="Path 181" d="M551.083,297.1v-.556h-1.5a.615.615,0,0,1-.426-.129.448.448,0,0,1-.142-.35.335.335,0,0,1,.021-.115.586.586,0,0,1,.063-.122q.042-.064.087-.124l.11-.147,1.584-2.119a2.432,2.432,0,0,1,.256-.3.339.339,0,0,1,.24-.094q.454,0,.454.52v2.313h.129a.9.9,0,0,1,.369.063.269.269,0,0,1,.139.275.286.286,0,0,1-.114.253.6.6,0,0,1-.341.079h-.182v.556a.5.5,0,0,1-.1.342.381.381,0,0,1-.542,0,.493.493,0,0,1-.1-.339m-1.285-1.225h1.285v-1.736Z" transform="translate(-420.274 -224.328)" fill="#fff"/>
    </g>
  </g>
</svg>
